<svg width="421" height="413" viewBox="0 0 421 413" fill="none" xmlns="http://www.w3.org/2000/svg">
<g filter="url(#filter0_d_4_23)">
<path d="M10 110C10 54.7715 54.7715 10 110 10H311C366.228 10 411 54.7715 411 110V302.377H10V110Z" fill="#EAEAEA"/>
<path d="M340.669 286.232C349.993 288.863 359.716 289.262 369.201 290.937C375.975 292.133 382.829 293.01 389.524 293.807C395.501 294.445 401.478 295.801 407.535 295.721C409.767 295.721 410.803 296.12 410.803 298.751C410.484 330.806 399.008 357.678 374.54 378.65C354.855 395.475 331.981 402.891 306.239 402.811C241.364 402.651 176.41 402.811 111.536 402.731C61.5648 402.731 18.448 365.573 11.0361 316.134C10.3985 311.669 10.0797 307.124 10.0797 302.658C10 269.726 10 236.794 10 203.861C10 202.825 10.0797 201.788 10.2391 200.113C26.1788 211.995 43.9515 218.932 62.1227 225.71C62.84 223.318 61.2461 221.404 61.7242 219.331C62.9994 220.925 63.2385 222.919 63.3979 224.833C63.4776 226.188 63.7167 227.145 65.3904 227.225C69.8535 227.464 73.679 229.697 77.8233 231.052C95.357 236.873 113.05 241.897 130.902 246.442C149.153 251.067 167.484 255.532 185.894 259.599C203.906 263.586 221.998 267.015 240.169 270.284C252.124 272.437 263.999 274.431 275.953 276.504C278.344 276.902 279.62 276.344 279.38 273.793C280.337 275.866 281.134 277.939 283.923 278.019C287.749 278.178 291.574 278.258 295.24 279.614C300.979 279.693 306.398 282.165 312.137 281.687C312.216 283.441 313.571 282.803 314.527 282.883C316.6 283.122 318.751 282.963 320.824 283.361C327.359 284.797 333.814 286.551 340.669 286.232ZM104.044 336.866C104.044 347.472 104.044 358.077 104.044 368.762C104.044 368.922 104.044 369.001 104.044 369.161C103.885 371.075 104.124 372.43 106.754 372.35C116.955 372.191 127.236 372.59 137.438 372.111C151.305 371.553 160.869 363.42 164.854 350.103C166.687 343.963 166.368 337.823 166.209 331.604C165.97 317.41 156.087 305.29 142.06 303.057C130.105 301.143 117.991 302.579 105.877 302.26C103.486 302.18 104.044 304.094 104.044 305.449C103.964 315.895 104.044 326.421 104.044 336.866ZM242.719 341.651C242.719 320.121 234.51 307.522 219.607 302.26C204.145 296.837 186.213 302.897 178.642 316.533C171.07 330.009 171.07 344.043 178.403 357.439C188.126 374.982 207.652 377.055 221.759 371.473C236.503 365.812 242.56 353.133 242.719 341.651ZM306.797 325.942C308.231 325.942 309.746 325.783 311.18 325.942C313.97 326.181 314.687 325.145 313.97 322.434C312.694 317.888 310.941 313.662 307.673 310.154C297.711 299.469 278.265 297.156 265.433 305.369C255.312 311.828 250.609 321.477 249.414 333.278C247.342 354.648 260.651 374.902 285.517 373.865C300.66 373.228 312.535 362.941 314.767 347.95C315.085 345.797 314.527 345.08 312.376 345.159C309.347 345.239 306.239 345.319 303.21 345.159C300.819 345 299.704 345.877 299.146 348.269C297.313 355.844 292.61 360.071 285.677 360.948C278.743 361.825 271.411 358.316 268.302 352.097C263.202 342.209 263.441 332.082 268.462 322.274C270.135 319.085 272.526 315.736 276.352 315.098C280.257 314.46 283.844 312.865 288.466 314.46C293.487 316.214 296.834 318.845 298.668 323.311C299.624 325.543 300.66 326.102 302.732 325.942C304.167 325.862 305.442 325.942 306.797 325.942Z" fill="#528EF3"/>
<path d="M279.301 273.792C279.54 276.424 278.265 276.902 275.874 276.504C263.919 274.351 251.964 272.437 240.089 270.284C221.918 267.015 203.827 263.586 185.815 259.599C167.404 255.532 149.074 251.067 130.823 246.442C112.97 241.897 95.1977 236.953 77.7437 231.052C73.6791 229.697 69.7739 227.464 65.3108 227.225C63.7168 227.145 63.4777 226.188 63.3183 224.832C63.1589 222.919 62.9198 220.925 61.6447 219.33C57.9785 202.665 54.3124 185.999 50.6463 169.254C45.5456 145.811 40.684 122.367 35.5036 99.0038C33.3517 88.6376 36.2209 80.584 44.2704 76.5173C48.7335 74.2845 53.6748 73.8858 58.4567 72.8492C87.9451 66.3903 117.513 60.0909 147.002 53.7915C168.52 49.2464 189.959 44.7012 211.478 40.2358C221.201 38.2423 230.286 44.6215 232.359 54.5889C234.51 64.955 236.742 75.3212 238.974 85.6075C239.133 86.4847 239.611 87.3618 239.93 88.1592C240.089 95.256 242.879 101.874 243.835 108.891C244.632 114.633 247.103 120.135 247.9 125.876C249.573 138.554 253.08 150.834 255.71 163.194C257.384 170.929 258.42 178.743 260.572 186.398C262.006 191.422 262.803 196.764 263.839 201.947C265.354 209.283 267.187 216.54 268.701 223.876C269.976 230.016 270.773 236.235 272.287 242.216C274.041 249.153 275.316 256.09 276.99 263.028C278.026 266.775 278.026 270.443 279.301 273.792ZM203.109 152.429C202.392 149.08 201.914 146.369 201.276 143.658C200.878 141.983 199.603 142.223 198.407 142.462C194.422 143.339 190.358 144.136 186.373 145.013C160.471 150.595 134.569 156.177 108.667 161.679C99.9796 163.513 100.059 163.353 101.574 171.886C102.052 174.517 103.088 174.676 105.319 174.198C129.707 168.935 154.174 163.752 178.562 158.569C185.974 156.974 193.306 155.379 200.718 153.864C201.914 153.545 203.269 153.546 203.109 152.429ZM197.61 126.833C197.212 124.76 196.733 122.686 196.415 120.613C196.096 118.38 195.139 117.583 192.669 118.141C162.543 124.68 132.337 130.979 102.211 137.438C94.0819 139.192 94.1616 139.272 96.3931 147.645C97.0307 150.037 97.9074 150.196 100.139 149.718C121.02 145.173 141.901 140.787 162.782 136.402C173.382 134.169 184.061 131.856 194.661 129.544C196.096 129.225 198.088 129.384 197.61 126.833ZM109.225 198.837C114.803 197.641 120.382 196.525 125.961 195.329C152.262 189.747 178.562 184.086 204.863 178.504C207.254 178.025 208.768 177.627 207.811 174.198C205.66 166.702 205.899 166.543 198.248 168.138C168.042 174.517 137.836 180.976 107.631 187.355C106.754 187.514 105.319 187.514 105.479 188.631C105.957 191.9 106.674 195.169 107.471 198.359C107.631 199.156 108.587 198.917 109.225 198.837ZM93.3646 125.397C94.321 125.238 94.9586 125.158 95.5962 125.079C125.802 118.699 155.928 112.24 186.134 105.861C192.908 104.426 192.589 104.426 191.314 97.1698C190.676 93.5815 189.481 93.103 186.134 93.9004C169.317 97.6482 152.501 101.077 135.605 104.665C120.94 107.775 106.355 111.044 91.6909 114.074C89.6985 114.473 89.3 115.271 89.6985 117.025C90.2564 119.178 90.7346 121.411 91.1331 123.643C91.5315 125.079 92.1691 125.716 93.3646 125.397Z" fill="#1D7DF6"/>
<path d="M279.301 273.792C278.026 270.364 278.026 266.696 277.149 263.187C275.475 256.33 274.2 249.312 272.447 242.375C270.932 236.315 270.135 230.095 268.86 224.035C267.346 216.699 265.513 209.443 263.999 202.107C262.963 196.924 262.166 191.581 260.731 186.558C258.5 178.903 257.463 171.088 255.869 163.353C253.239 150.914 249.733 138.634 248.059 126.035C247.262 120.294 244.791 114.792 243.994 109.051C243.038 102.034 240.169 95.4155 240.089 88.3187C240.249 87.601 240.567 87.1226 241.444 87.2821C261.13 90.5514 281.054 92.1462 300.819 94.9371C308.869 96.1331 315.882 104.984 315.006 113.277C314.368 119.337 313.491 125.318 312.774 131.378C311.021 140.867 310.463 150.515 309.108 160.084C307.913 168.138 306.876 176.351 305.92 184.405C304.884 193.335 303.529 202.266 302.732 211.197C302.174 217.975 300.022 224.593 300.74 231.531C300.819 231.929 300.74 232.328 300.58 232.727C298.508 239.265 298.269 246.043 297.791 252.741C297.313 259.12 295.081 265.34 295.878 271.879C295.958 272.357 295.719 272.915 295.4 273.314C293.965 275.387 294.284 277.54 295.161 279.693C291.495 278.338 287.669 278.258 283.844 278.098C281.054 277.939 280.257 275.866 279.301 273.792Z" fill="#85CC24"/>
<path d="M295.161 279.693C294.364 277.54 293.965 275.387 295.4 273.314C295.719 272.915 295.958 272.277 295.878 271.879C295.161 265.34 297.392 259.12 297.791 252.741C298.269 246.043 298.508 239.265 300.58 232.727C300.66 232.328 300.74 231.929 300.74 231.531C300.022 224.673 302.174 217.975 302.732 211.197C303.449 202.266 304.804 193.335 305.92 184.405C306.876 176.271 307.913 168.138 309.108 160.084C310.463 150.515 311.021 140.867 312.774 131.378C323.454 135.126 334.213 138.554 344.654 142.621C353.181 145.97 357.485 154.263 354.138 164.709C352.703 169.095 350.073 173.321 350.392 178.265C349.914 178.743 349.276 179.142 349.037 179.7C345.69 189.269 342.263 198.837 339.154 208.566C336.843 215.742 333.655 222.6 332.061 230.016C330.945 235.039 328.076 239.584 326.482 244.528C322.896 255.931 319.07 267.334 315.165 278.657C314.607 280.331 313.89 281.527 312.057 281.766C306.319 282.245 300.899 279.773 295.161 279.693Z" fill="#FDA22D"/>
<path d="M312.057 281.766C313.89 281.527 314.607 280.331 315.165 278.657C319.07 267.334 322.896 256.011 326.482 244.528C327.997 239.584 330.945 235.039 332.061 230.016C333.655 222.6 336.843 215.742 339.154 208.566C342.263 198.917 345.69 189.349 349.037 179.7C349.196 179.142 349.914 178.743 350.392 178.265C358.76 183.049 367.368 187.435 375.497 192.618C383.228 197.562 385.22 207.29 380.677 215.503C369.519 235.438 358.123 255.293 346.885 275.228C344.813 278.896 342.741 282.644 340.748 286.312C333.894 286.631 327.439 284.876 320.824 283.521C318.752 283.122 316.6 283.282 314.528 283.042C313.571 282.883 312.137 283.521 312.057 281.766Z" fill="#F16160"/>
<path d="M104.044 336.866C104.044 326.341 104.044 315.895 104.044 305.369C104.044 304.014 103.486 302.18 105.877 302.18C117.912 302.499 130.026 300.984 142.06 302.977C156.007 305.29 165.89 317.33 166.209 331.524C166.288 337.744 166.687 343.883 164.854 350.023C160.869 363.34 151.305 371.473 137.438 372.031C127.236 372.43 117.035 372.111 106.754 372.271C104.124 372.271 103.964 370.995 104.044 369.081C104.044 368.922 104.044 368.842 104.044 368.682C104.044 358.157 104.044 347.551 104.044 336.866ZM119.426 337.265C119.426 343.485 119.506 349.704 119.346 356.004C119.266 358.476 119.984 359.672 122.693 359.512C126.36 359.353 130.105 359.512 133.851 359.433C141.741 359.193 147.32 354.887 149.711 347.312C151.465 341.89 151.305 336.388 150.349 330.806C148.755 321.556 144.292 317.25 135.047 315.496C130.982 314.779 126.838 315.337 122.773 315.018C120.143 314.858 119.266 315.975 119.346 318.526C119.506 324.826 119.426 331.045 119.426 337.265Z" fill="#F6FCFD"/>
<path d="M242.719 341.651C242.56 353.133 236.503 365.812 221.759 371.553C207.652 377.055 188.126 375.062 178.403 357.519C170.991 344.123 171.07 330.089 178.642 316.613C186.293 302.977 204.225 296.917 219.607 302.339C234.431 307.522 242.719 320.121 242.719 341.651ZM189.003 339.498C189.082 340.694 189.003 341.89 189.242 343.086C190.517 350.342 193.227 356.722 200.638 359.592C207.971 362.383 215.144 361.745 220.882 355.924C229.888 346.914 229.41 325.862 219.368 317.251C211.079 310.154 197.61 313.024 192.19 322.593C189.321 327.856 188.763 333.597 189.003 339.498Z" fill="#F6FCFD"/>
<path d="M306.797 325.942C305.442 325.942 304.167 325.862 302.812 325.942C300.74 326.102 299.704 325.543 298.747 323.311C296.835 318.845 293.487 316.214 288.546 314.46C284.003 312.865 280.337 314.46 276.432 315.098C272.606 315.736 270.136 319.005 268.542 322.274C263.521 332.082 263.361 342.209 268.382 352.097C271.57 358.316 278.902 361.825 285.757 360.948C292.77 360.071 297.392 355.765 299.226 348.269C299.783 345.877 300.819 345 303.29 345.159C306.319 345.399 309.427 345.319 312.455 345.159C314.607 345.08 315.165 345.797 314.846 347.95C312.535 362.941 300.74 373.228 285.597 373.865C260.731 374.902 247.422 354.648 249.494 333.278C250.61 321.477 255.312 311.828 265.513 305.369C278.345 297.156 297.791 299.389 307.753 310.154C311.021 313.662 312.774 317.888 314.049 322.434C314.767 325.145 313.97 326.181 311.26 325.942C309.746 325.783 308.231 325.942 306.797 325.942Z" fill="#F6FCFD"/>
<path d="M203.109 152.429C203.269 153.546 201.914 153.546 200.718 153.785C193.306 155.38 185.974 156.974 178.562 158.489C154.095 163.672 129.707 168.856 105.319 174.118C103.088 174.597 102.052 174.437 101.573 171.806C100.059 163.274 99.9795 163.433 108.667 161.599C134.569 156.097 160.471 150.515 186.373 144.934C190.357 144.057 194.422 143.259 198.407 142.382C199.602 142.143 200.878 141.904 201.276 143.578C201.914 146.369 202.472 149.08 203.109 152.429Z" fill="#F6FCFD"/>
<path d="M197.61 126.833C198.168 129.385 196.096 129.225 194.661 129.544C184.061 131.856 173.382 134.089 162.782 136.402C141.901 140.867 121.02 145.173 100.139 149.718C97.8276 150.197 97.0306 150.037 96.3931 147.645C94.2412 139.272 94.0818 139.192 102.211 137.438C132.337 130.979 162.543 124.6 192.669 118.141C195.139 117.583 196.016 118.381 196.414 120.613C196.733 122.686 197.211 124.76 197.61 126.833Z" fill="#F6FCFD"/>
<path d="M109.224 198.838C108.587 198.838 107.631 199.077 107.471 198.359C106.674 195.17 105.957 191.9 105.479 188.631C105.319 187.515 106.754 187.594 107.631 187.355C137.836 180.976 168.042 174.517 198.248 168.138C205.978 166.543 205.66 166.703 207.811 174.198C208.768 177.627 207.253 178.026 204.863 178.504C178.562 184.086 152.262 189.747 125.961 195.329C120.382 196.525 114.803 197.721 109.224 198.838Z" fill="#F6FCFD"/>
<path d="M93.3644 125.398C92.169 125.716 91.5314 125.079 91.2126 123.564C90.8141 121.331 90.3359 119.178 89.778 116.945C89.3795 115.191 89.778 114.394 91.7705 113.995C106.435 110.965 121.02 107.695 135.684 104.586C152.501 100.997 169.397 97.5685 186.213 93.8207C189.56 93.1031 190.836 93.5018 191.393 97.0901C192.669 104.267 192.908 104.346 186.213 105.782C156.007 112.241 125.881 118.62 95.6757 124.999C94.9584 125.238 94.3208 125.318 93.3644 125.398Z" fill="#F6FCFD"/>
<path d="M119.426 337.265C119.426 331.045 119.506 324.826 119.426 318.526C119.346 315.975 120.223 314.858 122.853 315.018C126.918 315.257 131.062 314.699 135.126 315.496C144.371 317.171 148.755 321.556 150.429 330.806C151.385 336.388 151.544 341.89 149.791 347.312C147.4 354.887 141.821 359.193 133.931 359.433C130.185 359.512 126.519 359.353 122.773 359.512C120.063 359.672 119.346 358.396 119.426 356.004C119.506 349.704 119.426 343.485 119.426 337.265Z" fill="#528EF3"/>
<path d="M189.003 339.498C188.763 333.597 189.242 327.856 192.27 322.593C197.69 313.024 211.159 310.154 219.447 317.251C229.489 325.783 229.888 346.914 220.962 355.924C215.223 361.665 208.05 362.383 200.718 359.592C193.306 356.801 190.597 350.342 189.321 343.086C189.082 341.89 189.082 340.694 189.003 339.498Z" fill="#528EF3"/>
<path d="M324.809 291.893H89.6188V382.796H324.809V291.893Z" fill="#528EF3"/>
</g>
<path d="M140.384 288.883H143.334L158.084 324.383H154.384L149.784 313.283H133.834L129.284 324.383H125.534L140.384 288.883ZM148.984 310.533L141.834 292.983L134.584 310.533H148.984ZM162.623 287.883H166.023V318.483C166.023 319.449 166.289 320.216 166.823 320.783C167.356 321.316 168.106 321.583 169.073 321.583C169.439 321.583 169.873 321.533 170.373 321.433C170.873 321.333 171.339 321.199 171.773 321.033L172.373 323.783C171.739 324.049 170.956 324.266 170.023 324.433C169.123 324.599 168.339 324.683 167.673 324.683C166.106 324.683 164.873 324.249 163.973 323.383C163.073 322.483 162.623 321.233 162.623 319.633V287.883ZM176.246 287.883H179.646V318.483C179.646 319.449 179.912 320.216 180.446 320.783C180.979 321.316 181.729 321.583 182.696 321.583C183.062 321.583 183.496 321.533 183.996 321.433C184.496 321.333 184.962 321.199 185.396 321.033L185.996 323.783C185.362 324.049 184.579 324.266 183.646 324.433C182.746 324.599 181.962 324.683 181.296 324.683C179.729 324.683 178.496 324.249 177.596 323.383C176.696 322.483 176.246 321.233 176.246 319.633V287.883ZM201.6 324.383V288.883H224.9V291.983H205.1V305.033H221.8V307.933H205.1V324.383H201.6ZM230.344 324.383V298.333H233.744V324.383H230.344ZM230.344 292.883V287.883H233.744V292.883H230.344ZM241.382 287.883H244.782V318.483C244.782 319.449 245.049 320.216 245.582 320.783C246.116 321.316 246.866 321.583 247.832 321.583C248.199 321.583 248.632 321.533 249.132 321.433C249.632 321.333 250.099 321.199 250.532 321.033L251.132 323.783C250.499 324.049 249.716 324.266 248.782 324.433C247.882 324.599 247.099 324.683 246.432 324.683C244.866 324.683 243.632 324.249 242.732 323.383C241.832 322.483 241.382 321.233 241.382 319.633V287.883ZM266.105 324.883C264.205 324.883 262.455 324.533 260.855 323.833C259.289 323.099 257.922 322.116 256.755 320.883C255.589 319.616 254.672 318.166 254.005 316.533C253.372 314.899 253.055 313.149 253.055 311.283C253.055 309.449 253.372 307.733 254.005 306.133C254.672 304.499 255.572 303.083 256.705 301.883C257.872 300.649 259.255 299.683 260.855 298.983C262.455 298.249 264.189 297.883 266.055 297.883C267.955 297.883 269.689 298.249 271.255 298.983C272.855 299.683 274.222 300.649 275.355 301.883C276.489 303.116 277.372 304.533 278.005 306.133C278.639 307.733 278.955 309.433 278.955 311.233C278.955 311.499 278.955 311.766 278.955 312.033C278.955 312.299 278.939 312.483 278.905 312.583H256.605C256.705 313.983 257.022 315.283 257.555 316.483C258.122 317.649 258.839 318.666 259.705 319.533C260.572 320.399 261.555 321.083 262.655 321.583C263.789 322.049 264.989 322.283 266.255 322.283C267.089 322.283 267.922 322.166 268.755 321.933C269.589 321.699 270.355 321.383 271.055 320.983C271.755 320.583 272.389 320.099 272.955 319.533C273.522 318.933 273.955 318.283 274.255 317.583L277.205 318.383C276.805 319.349 276.239 320.233 275.505 321.033C274.772 321.799 273.922 322.483 272.955 323.083C271.989 323.649 270.922 324.083 269.755 324.383C268.589 324.716 267.372 324.883 266.105 324.883ZM275.705 309.983C275.605 308.583 275.272 307.316 274.705 306.183C274.172 305.016 273.472 304.016 272.605 303.183C271.772 302.349 270.789 301.699 269.655 301.233C268.555 300.766 267.372 300.533 266.105 300.533C264.839 300.533 263.639 300.766 262.505 301.233C261.372 301.699 260.372 302.349 259.505 303.183C258.672 304.016 257.989 305.016 257.455 306.183C256.955 307.349 256.655 308.616 256.555 309.983H275.705ZM103.083 388.383V342.233H123.493C125.617 342.233 127.567 342.688 129.343 343.598C131.163 344.464 132.723 345.634 134.023 347.108C135.323 348.538 136.342 350.184 137.078 352.048C137.815 353.868 138.183 355.709 138.183 357.573C138.183 360.563 137.425 363.293 135.908 365.763C134.435 368.189 132.42 369.944 129.863 371.028L140.393 388.383H130.318L120.893 372.913H112.053V388.383H103.083ZM112.053 365.048H123.298C124.122 365.048 124.88 364.853 125.573 364.463C126.31 364.073 126.938 363.553 127.458 362.903C127.978 362.209 128.39 361.408 128.693 360.498C128.997 359.588 129.148 358.613 129.148 357.573C129.148 356.489 128.975 355.493 128.628 354.583C128.282 353.673 127.805 352.893 127.198 352.243C126.635 351.549 125.963 351.029 125.183 350.683C124.447 350.293 123.688 350.098 122.908 350.098H112.053V365.048ZM160.309 389.033C157.579 389.033 155.109 388.578 152.899 387.668C150.689 386.714 148.804 385.436 147.244 383.833C145.684 382.229 144.47 380.366 143.604 378.243C142.78 376.119 142.369 373.888 142.369 371.548C142.369 369.121 142.78 366.846 143.604 364.723C144.427 362.556 145.619 360.671 147.179 359.068C148.739 357.421 150.624 356.121 152.834 355.168C155.087 354.214 157.6 353.738 160.374 353.738C163.147 353.738 165.617 354.214 167.784 355.168C169.994 356.121 171.857 357.399 173.374 359.003C174.934 360.606 176.104 362.469 176.884 364.593C177.707 366.716 178.119 368.926 178.119 371.223C178.119 371.786 178.097 372.328 178.054 372.848C178.054 373.368 178.01 373.801 177.924 374.148H151.599C151.729 375.491 152.054 376.683 152.574 377.723C153.094 378.763 153.765 379.651 154.589 380.388C155.412 381.124 156.344 381.688 157.384 382.078C158.424 382.468 159.507 382.663 160.634 382.663C162.367 382.663 163.992 382.251 165.509 381.428C167.069 380.561 168.13 379.434 168.694 378.048L176.169 380.128C174.912 382.728 172.897 384.873 170.124 386.563C167.394 388.209 164.122 389.033 160.309 389.033ZM169.149 368.493C168.932 365.936 167.979 363.899 166.289 362.383C164.642 360.823 162.627 360.043 160.244 360.043C159.074 360.043 157.969 360.259 156.929 360.693C155.932 361.083 155.044 361.646 154.264 362.383C153.484 363.119 152.834 364.008 152.314 365.048C151.837 366.088 151.555 367.236 151.469 368.493H169.149ZM192.72 389.033C191.073 389.033 189.535 388.773 188.105 388.253C186.675 387.689 185.44 386.931 184.4 385.978C183.36 384.981 182.537 383.833 181.93 382.533C181.367 381.233 181.085 379.803 181.085 378.243C181.085 376.639 181.432 375.166 182.125 373.823C182.862 372.436 183.858 371.266 185.115 370.313C186.415 369.359 187.953 368.623 189.73 368.103C191.507 367.539 193.457 367.258 195.58 367.258C197.097 367.258 198.57 367.388 200 367.648C201.473 367.908 202.773 368.276 203.9 368.753V366.803C203.9 364.549 203.25 362.816 201.95 361.603C200.693 360.389 198.808 359.783 196.295 359.783C194.475 359.783 192.698 360.108 190.965 360.758C189.232 361.408 187.455 362.361 185.635 363.618L182.97 358.093C187.347 355.189 192.07 353.738 197.14 353.738C202.037 353.738 205.828 354.951 208.515 357.378C211.245 359.761 212.61 363.228 212.61 367.778V378.373C212.61 379.283 212.762 379.933 213.065 380.323C213.412 380.713 213.953 380.929 214.69 380.973V388.383C213.217 388.686 211.938 388.838 210.855 388.838C209.208 388.838 207.93 388.469 207.02 387.733C206.153 386.996 205.612 386.021 205.395 384.808L205.2 382.923C203.683 384.916 201.842 386.433 199.675 387.473C197.508 388.513 195.19 389.033 192.72 389.033ZM195.19 382.663C196.663 382.663 198.05 382.403 199.35 381.883C200.693 381.363 201.733 380.669 202.47 379.803C203.423 379.066 203.9 378.243 203.9 377.333V373.433C202.86 373.043 201.733 372.739 200.52 372.523C199.307 372.263 198.137 372.133 197.01 372.133C194.757 372.133 192.915 372.653 191.485 373.693C190.055 374.689 189.34 375.968 189.34 377.528C189.34 379.001 189.903 380.236 191.03 381.233C192.157 382.186 193.543 382.663 195.19 382.663ZM234.854 389.033C232.514 389.033 230.348 388.578 228.354 387.668C226.361 386.758 224.649 385.501 223.219 383.898C221.789 382.294 220.663 380.431 219.839 378.308C219.059 376.141 218.669 373.823 218.669 371.353C218.669 368.883 219.038 366.586 219.774 364.463C220.554 362.339 221.616 360.476 222.959 358.873C224.303 357.269 225.906 356.013 227.769 355.103C229.633 354.193 231.669 353.738 233.879 353.738C236.393 353.738 238.646 354.344 240.639 355.558C242.676 356.771 244.258 358.353 245.384 360.303V340.933H254.094V378.373C254.094 379.283 254.246 379.933 254.549 380.323C254.853 380.713 255.373 380.929 256.109 380.973V388.383C254.593 388.686 253.358 388.838 252.404 388.838C250.844 388.838 249.566 388.448 248.569 387.668C247.573 386.888 247.009 385.869 246.879 384.613L246.684 382.468C245.428 384.634 243.716 386.281 241.549 387.408C239.426 388.491 237.194 389.033 234.854 389.033ZM237.129 381.623C237.953 381.623 238.798 381.493 239.664 381.233C240.531 380.929 241.333 380.518 242.069 379.998C242.806 379.478 243.456 378.871 244.019 378.178C244.626 377.484 245.081 376.726 245.384 375.903V367.778C245.038 366.824 244.539 365.958 243.889 365.178C243.283 364.354 242.568 363.661 241.744 363.098C240.964 362.491 240.119 362.014 239.209 361.668C238.343 361.321 237.476 361.148 236.609 361.148C235.309 361.148 234.096 361.429 232.969 361.993C231.886 362.556 230.954 363.336 230.174 364.333C229.394 365.286 228.788 366.391 228.354 367.648C227.921 368.904 227.704 370.204 227.704 371.548C227.704 372.978 227.943 374.299 228.419 375.513C228.896 376.726 229.546 377.788 230.369 378.698C231.193 379.608 232.168 380.323 233.294 380.843C234.464 381.363 235.743 381.623 237.129 381.623ZM278.439 389.033C275.709 389.033 273.239 388.578 271.029 387.668C268.819 386.714 266.934 385.436 265.374 383.833C263.814 382.229 262.6 380.366 261.734 378.243C260.91 376.119 260.499 373.888 260.499 371.548C260.499 369.121 260.91 366.846 261.734 364.723C262.557 362.556 263.749 360.671 265.309 359.068C266.869 357.421 268.754 356.121 270.964 355.168C273.217 354.214 275.73 353.738 278.504 353.738C281.277 353.738 283.747 354.214 285.914 355.168C288.124 356.121 289.987 357.399 291.504 359.003C293.064 360.606 294.234 362.469 295.014 364.593C295.837 366.716 296.249 368.926 296.249 371.223C296.249 371.786 296.227 372.328 296.184 372.848C296.184 373.368 296.14 373.801 296.054 374.148H269.729C269.859 375.491 270.184 376.683 270.704 377.723C271.224 378.763 271.895 379.651 272.719 380.388C273.542 381.124 274.474 381.688 275.514 382.078C276.554 382.468 277.637 382.663 278.764 382.663C280.497 382.663 282.122 382.251 283.639 381.428C285.199 380.561 286.26 379.434 286.824 378.048L294.299 380.128C293.042 382.728 291.027 384.873 288.254 386.563C285.524 388.209 282.252 389.033 278.439 389.033ZM287.279 368.493C287.062 365.936 286.109 363.899 284.419 362.383C282.772 360.823 280.757 360.043 278.374 360.043C277.204 360.043 276.099 360.259 275.059 360.693C274.062 361.083 273.174 361.646 272.394 362.383C271.614 363.119 270.964 364.008 270.444 365.048C269.967 366.088 269.685 367.236 269.599 368.493H287.279ZM321.835 361.863C319.192 361.906 316.83 362.426 314.75 363.423C312.67 364.376 311.175 365.828 310.265 367.778V388.383H301.555V354.323H309.55V361.603C310.157 360.433 310.872 359.393 311.695 358.483C312.518 357.529 313.407 356.706 314.36 356.013C315.313 355.319 316.267 354.799 317.22 354.453C318.217 354.063 319.17 353.868 320.08 353.868C320.557 353.868 320.903 353.868 321.12 353.868C321.38 353.868 321.618 353.889 321.835 353.933V361.863Z" fill="white"/>
<defs>
<filter id="filter0_d_4_23" x="0" y="0" width="421" height="412.812" filterUnits="userSpaceOnUse" color-interpolation-filters="sRGB">
<feFlood flood-opacity="0" result="BackgroundImageFix"/>
<feColorMatrix in="SourceAlpha" type="matrix" values="0 0 0 0 0 0 0 0 0 0 0 0 0 0 0 0 0 0 127 0" result="hardAlpha"/>
<feOffset/>
<feGaussianBlur stdDeviation="5"/>
<feComposite in2="hardAlpha" operator="out"/>
<feColorMatrix type="matrix" values="0 0 0 0 0 0 0 0 0 0 0 0 0 0 0 0 0 0 0.1 0"/>
<feBlend mode="normal" in2="BackgroundImageFix" result="effect1_dropShadow_4_23"/>
<feBlend mode="normal" in="SourceGraphic" in2="effect1_dropShadow_4_23" result="shape"/>
</filter>
</defs>
</svg>
