<svg width="48" height="64" viewBox="0 0 48 64" fill="none" xmlns="http://www.w3.org/2000/svg">
<path d="M6.93685 0C14.3329 0 21.7453 0 29.1413 0C29.1413 5.87079 29.1413 11.7251 29.1577 17.5959C29.1577 18.4511 29.1577 18.4511 30.0105 18.4511C35.619 18.4511 41.2111 18.4511 46.8196 18.4511C47.1148 18.6813 47 19.0266 47 19.3062C47 30.9491 47 42.592 47 54.2514C47 54.6132 47 54.9914 46.9672 55.3532C46.7048 59.5795 43.1954 62.9671 38.9644 62.9836C28.6657 63.0164 18.3507 63 8.05199 62.9836C6.57606 62.9836 5.18214 62.5889 3.9358 61.7831C1.24634 60.0893 0 57.6226 0 54.4487C0.0163992 39.1551 0 23.8614 0 8.56774C0 8.28817 0 7.99217 0.0163992 7.71261C0.229588 4.19342 2.64026 1.21691 6.01849 0.279561C6.33008 0.197338 6.65806 0.213782 6.93685 0ZM7.57641 39.7635C7.57641 41.3258 7.59281 42.8716 7.57641 44.4338C7.57641 44.8285 7.69121 44.9601 8.10119 44.9601C9.34752 44.9272 10.5939 44.9765 11.8402 44.9272C14.6445 44.8121 16.514 42.9702 16.7271 40.1582C16.9403 37.2968 15.4152 35.2412 12.6602 34.6821C11.1678 34.3861 9.64271 34.6163 8.13398 34.5341C7.70761 34.5176 7.57641 34.6656 7.59281 35.0932C7.59281 36.639 7.57641 38.2013 7.57641 39.7635ZM23.008 34.4189C19.8922 34.4354 17.6291 36.6719 17.6291 39.7306C17.6291 42.8058 19.925 45.0587 23.0736 45.0423C26.1731 45.0423 28.4197 42.7893 28.4197 39.6977C28.3869 36.639 26.1075 34.4189 23.008 34.4189ZM34.6678 34.4189C31.47 34.4025 29.3545 36.491 29.3053 39.6813C29.2725 42.0493 30.3876 43.8583 32.4047 44.6476C33.8643 45.2232 35.373 45.2067 36.8325 44.6476C37.9969 44.2036 38.8004 43.3814 39.2268 42.1809C39.3416 41.852 39.3088 41.704 38.948 41.6382C38.3084 41.5067 37.6689 41.3587 37.0293 41.2106C36.8161 41.1613 36.6685 41.1449 36.5701 41.4244C36.2093 42.3947 35.4714 42.8222 34.471 42.8058C33.4051 42.7729 32.6507 42.2467 32.2244 41.2764C31.88 40.5035 31.8636 39.6813 32.0276 38.859C32.29 37.6092 33.1099 36.8199 34.2087 36.6883C35.3238 36.5568 36.111 37.0501 36.6685 38.2835C36.7833 38.5301 36.9145 38.563 37.1277 38.5137C37.7509 38.3821 38.3576 38.2506 38.9808 38.1355C39.3252 38.0697 39.358 37.8888 39.2924 37.6092C39.112 36.8034 38.7184 36.1292 38.0953 35.5865C37.1277 34.7314 35.947 34.4189 34.6678 34.4189Z" fill="#3863CC"/>
<path d="M29.2561 0C30.9616 1.80893 32.6671 3.6343 34.3891 5.44323C38.4068 9.65309 42.4246 13.8465 46.426 18.0564C46.5572 18.1879 46.672 18.3359 46.7868 18.4675C41.1783 18.4675 35.5862 18.4675 29.9777 18.4675C29.1413 18.4675 29.1249 18.4675 29.1249 17.6124C29.1249 11.7416 29.1249 5.88724 29.1085 0.0164448C29.1741 0 29.2233 0 29.2561 0Z" fill="#6791DB"/>
<path d="M7.57641 39.7635C7.57641 38.2013 7.59281 36.6555 7.56001 35.0932C7.56001 34.6656 7.6748 34.5176 8.10118 34.5341C9.6099 34.6163 11.135 34.3861 12.6273 34.6821C15.3824 35.2412 16.9075 37.2968 16.6943 40.1582C16.4812 42.9538 14.6116 44.8121 11.8074 44.9272C10.5611 44.9765 9.31472 44.9272 8.06838 44.9601C7.6584 44.9765 7.54361 44.8285 7.54361 44.4339C7.59281 42.8716 7.57641 41.3093 7.57641 39.7635ZM10.1839 39.6977C10.1839 40.3391 10.1839 40.964 10.1839 41.6053C10.1839 42.8058 10.1839 42.8058 11.3974 42.6907C13.1029 42.5098 14.0213 41.5396 14.0541 39.8951C14.0869 38.0862 13.2669 37.0666 11.5614 36.8364C11.2826 36.8035 10.9874 36.8364 10.7086 36.8035C10.3151 36.7541 10.1675 36.8857 10.1839 37.3133C10.2167 38.0862 10.1839 38.892 10.1839 39.6977Z" fill="#FAFBFD"/>
<path d="M23.008 34.419C26.1239 34.4025 28.4034 36.639 28.4034 39.6977C28.4198 42.7894 26.1567 45.0423 23.0572 45.0423C19.9086 45.0423 17.6127 42.8058 17.6127 39.7306C17.6127 36.6719 19.8922 34.4354 23.008 34.419ZM20.2694 39.7142C20.253 41.1942 21.0401 42.3618 22.2537 42.7071C23.7788 43.1347 25.1727 42.3289 25.6319 40.7667C26.1239 39.0564 25.3367 37.2639 23.8772 36.8035C21.9749 36.195 20.2858 37.5764 20.2694 39.7142Z" fill="#FBFCFD"/>
<path d="M34.6678 34.419C35.9634 34.4025 37.1277 34.7314 38.1281 35.5866C38.7512 36.1292 39.1448 36.8035 39.3252 37.6093C39.3908 37.8888 39.358 38.0862 39.0136 38.1355C38.3904 38.2342 37.7673 38.3822 37.1605 38.5137C36.9473 38.5631 36.8161 38.5302 36.7013 38.2835C36.1438 37.0501 35.3566 36.5568 34.2415 36.6884C33.1263 36.8199 32.3064 37.6257 32.0604 38.8591C31.8964 39.6813 31.9128 40.5035 32.2572 41.2764C32.6835 42.2467 33.4543 42.7729 34.5038 42.8058C35.5042 42.8222 36.2422 42.3947 36.6029 41.4244C36.7013 41.1449 36.8489 41.1613 37.0621 41.2107C37.7017 41.3587 38.3413 41.5067 38.9808 41.6382C39.3416 41.704 39.3744 41.8685 39.2596 42.1809C38.8332 43.3814 38.0297 44.2036 36.8653 44.6476C35.4058 45.2067 33.8971 45.2232 32.4376 44.6476C30.4205 43.8583 29.3053 42.0493 29.3381 39.6813C29.3381 36.491 31.47 34.4025 34.6678 34.419Z" fill="#FCFCFD"/>
<path d="M10.1839 39.6977C10.1839 38.8919 10.2003 38.1026 10.1675 37.2968C10.1511 36.8857 10.2987 36.7541 10.6923 36.787C10.971 36.8199 11.2662 36.787 11.545 36.8199C13.2505 37.0501 14.0705 38.0697 14.0377 39.8786C14.0049 41.5231 13.0865 42.4933 11.381 42.6742C10.1675 42.8058 10.1675 42.8058 10.1675 41.5889C10.1839 40.964 10.1839 40.3226 10.1839 39.6977Z" fill="#3964CD"/>
<path d="M20.2694 39.7142C20.2858 37.5764 21.9749 36.195 23.8772 36.8035C25.3367 37.2639 26.1403 39.0564 25.6319 40.7667C25.1727 42.3125 23.7788 43.1183 22.2537 42.7072C21.0401 42.3618 20.253 41.1942 20.2694 39.7142Z" fill="#3A64CD"/>
</svg>
