<svg width="45" height="41" viewBox="0 0 45 41" fill="none" xmlns="http://www.w3.org/2000/svg">
<path d="M45 25.4184C44.8943 25.5109 44.7768 25.6033 44.6711 25.6958C42.545 27.7764 40.4307 29.8686 38.3164 31.9493C38.2459 32.0186 38.1637 32.088 38.1049 32.1573C37.9287 32.3538 37.6938 32.377 37.4589 32.296C37.224 32.2036 37.1652 31.9955 37.1652 31.7643C37.177 30.9783 37.177 30.1807 37.177 29.3947C37.2944 29.2907 37.4236 29.1867 37.5294 29.0826C39.3618 27.291 41.1825 25.4878 43.0031 23.6961C43.1206 23.5805 43.2146 23.4649 43.3203 23.3378C43.8723 23.8579 44.4362 24.3781 44.9882 24.8982C45 25.0716 45 25.245 45 25.4184Z" fill="#97CFB0"/>
<path d="M26.1002 36.8387C20.7322 36.8387 15.3524 36.8387 9.98434 36.8272C9.98434 25.9039 9.98434 14.969 9.98434 4.04567C9.98434 3.84917 9.9726 3.64111 9.9726 3.4446C14.8238 3.4446 19.6633 3.43304 24.5145 3.43304C25.0431 3.43304 25.5716 3.4446 26.1002 3.4446C26.1002 6.01072 26.1002 8.56527 26.1002 11.1314C25.7596 11.1429 25.4307 11.1892 25.278 11.5706C25.184 11.8134 25.2428 12.0214 25.3837 12.2064C25.5599 12.4376 25.8301 12.4491 26.0885 12.4607C26.0885 15.7666 26.0885 19.084 26.0885 22.3899C24.5497 22.3899 23.011 22.3899 21.4839 22.4015C20.9319 22.4015 20.8144 22.5171 20.8144 23.0603C20.8144 24.459 20.8144 25.8576 20.8144 27.2563C20.8144 27.7995 20.9554 27.9267 21.5192 27.9383C23.0462 27.9383 24.5615 27.9383 26.0885 27.9383C26.1002 30.8974 26.1002 33.8681 26.1002 36.8387ZM16.5153 16.4948C16.527 16.8531 16.6797 17.0496 16.9499 17.1536C17.267 17.2808 17.5254 17.1652 17.7251 16.9109C18.101 16.4139 18.4534 15.9053 18.8175 15.3967C18.9585 15.2002 19.0407 15.1655 19.1934 15.3851C19.5223 15.859 19.863 16.333 20.2036 16.7953C20.509 17.2114 20.8731 17.3155 21.202 17.0843C21.5309 16.8531 21.5779 16.4717 21.2843 16.0555C20.8731 15.466 20.4503 14.8765 20.0157 14.2986C19.863 14.0905 19.8512 13.9402 20.0157 13.7322C20.3915 13.2467 20.7322 12.7496 21.0728 12.2526C21.3312 11.8712 21.2725 11.4782 20.9554 11.2701C20.6382 11.062 20.2741 11.1429 20.0039 11.5013C19.722 11.8712 19.4518 12.241 19.1934 12.6341C19.0525 12.8306 18.9702 12.8652 18.8293 12.6456C18.5826 12.2757 18.3125 11.9174 18.0423 11.5475C17.7604 11.1545 17.3962 11.062 17.0673 11.2701C16.7267 11.4897 16.6797 11.8943 16.9616 12.2873C17.314 12.7843 17.6547 13.2814 18.0188 13.7668C18.1597 13.9518 18.148 14.0789 18.0188 14.2639C17.5842 14.8418 17.1731 15.4314 16.7502 16.0209C16.621 16.1711 16.5035 16.3445 16.5153 16.4948ZM12.2161 14.1599C12.2161 14.9228 12.2161 15.6856 12.2161 16.4485C12.2161 16.8878 12.4393 17.1652 12.8504 17.1768C13.5317 17.1999 14.2247 17.1999 14.9178 17.1768C15.3054 17.1652 15.5521 16.8531 15.5521 16.5295C15.5521 16.1711 15.2702 15.9053 14.859 15.8937C14.5067 15.8822 14.1543 15.8937 13.8019 15.8937C13.6844 15.8937 13.5787 15.9053 13.5317 15.7434C13.3438 15.1193 13.5552 14.8303 14.213 14.8303C14.354 14.8303 14.5067 14.8303 14.6476 14.8303C15.1175 14.7956 15.3759 14.576 15.3759 14.1945C15.3876 13.8015 15.1057 13.5472 14.6359 13.5241C14.4949 13.5125 14.3422 13.5241 14.2013 13.5241C13.52 13.5241 13.5317 13.5241 13.52 12.8652C13.52 12.5763 13.5787 12.4376 13.9076 12.4722C14.2013 12.4953 14.4949 12.4838 14.7886 12.4722C15.2584 12.4607 15.5521 12.2064 15.5521 11.8249C15.5521 11.4435 15.2467 11.1892 14.7768 11.1776C14.1778 11.1661 13.5787 11.1661 12.9796 11.1776C12.4746 11.1892 12.2279 11.4319 12.2279 11.929C12.2044 12.6572 12.2161 13.4085 12.2161 14.1599ZM23.9154 14.183C23.9154 13.4201 23.9154 12.6572 23.9154 11.8943C23.9154 11.3972 23.6922 11.1429 23.2694 11.1429C22.8583 11.1429 22.5998 11.4088 22.5998 11.8827C22.5881 13.397 22.5881 14.9112 22.5998 16.4139C22.5998 16.8762 22.87 17.1768 23.2576 17.1768C23.6453 17.1883 23.9037 16.8878 23.9154 16.4254C23.9272 15.6741 23.9154 14.9228 23.9154 14.183Z" fill="#EFE06D"/>
<path d="M3.07751 0.0693563C3.31244 0.0462381 3.50038 0.15027 3.70007 0.254301C4.51056 0.670427 5.3328 1.07499 6.14329 1.47956C6.28425 1.54892 6.40171 1.67607 6.57791 1.61827C6.87156 1.99972 7.3884 2.02284 7.72904 2.32337C7.72904 13.2004 7.72904 24.0891 7.72904 34.9662C7.72904 35.4054 7.59983 35.7059 7.21221 35.9256C6.19028 36.5382 5.19184 37.1855 4.16992 37.7981C3.82928 38.0062 3.50038 38.2836 3.07751 38.3067C3.07751 25.5571 3.07751 12.819 3.07751 0.0693563ZM5.0039 21.9044C5.0039 22.4708 5.46201 22.9794 6.00234 22.991C6.56616 23.0025 7.10649 22.4939 7.11824 21.9391C7.12998 21.3727 6.61315 20.8179 6.04932 20.841C5.50899 20.8526 4.93343 21.2456 5.0039 21.9044Z" fill="#465E7A"/>
<path d="M26.1003 27.9267C24.5732 27.9267 23.058 27.9267 21.5309 27.9267C20.9554 27.9267 20.8262 27.7995 20.8262 27.2447C20.8262 25.8461 20.8262 24.4474 20.8262 23.0488C20.8262 22.5055 20.9436 22.3899 21.4957 22.3899C23.0345 22.3899 24.5732 22.3899 26.1003 22.3783C27.7095 22.3783 29.3305 22.3783 30.9397 22.3783C31.5505 22.3783 32.1731 22.3783 32.7839 22.3783C33.3125 22.3783 33.8293 22.3783 34.3579 22.3899C35.1449 22.3899 35.9436 22.3783 36.7306 22.4015C37.083 22.413 37.177 22.2743 37.177 21.9391C37.1652 20.8179 37.177 19.6966 37.1652 18.5754C37.1652 18.3327 37.2005 18.1015 37.4707 18.009C37.7056 17.9281 37.917 17.9743 38.1049 18.1593C39.8317 19.8585 41.5584 21.5576 43.2851 23.2684C43.3086 23.2915 43.3203 23.3146 43.332 23.3377C43.2263 23.4533 43.1324 23.5805 43.0149 23.6961C41.1942 25.4993 39.3618 27.2909 37.5411 29.0826C37.4237 29.1982 37.3062 29.2907 37.1887 29.3947C37.1887 29.0364 37.1652 28.678 37.177 28.3197C37.1887 28.0307 37.083 27.9036 36.7659 27.9151C35.9671 27.9267 35.1566 27.9267 34.3579 27.9267C33.8645 27.9267 33.3595 27.9267 32.8661 27.9267C32.2201 27.9267 31.5858 27.9267 30.9397 27.9267C29.3305 27.9267 27.7212 27.9267 26.1003 27.9267Z" fill="#ABF0A8"/>
<path d="M32.7838 22.3784C32.173 22.3784 31.5505 22.3784 30.9397 22.3784C30.9397 17.905 30.9397 13.4432 30.9397 8.96984C30.9397 7.2591 30.9397 5.5368 30.9397 3.82606C30.9397 3.60643 30.9749 3.40993 30.6225 3.40993C29.119 3.43305 27.6037 3.42149 26.1002 3.43305C25.5716 3.43305 25.043 3.42149 24.5145 3.42149C19.6633 3.42149 14.8238 3.43305 9.97257 3.43305C9.25605 3.00536 8.50429 2.63547 7.72903 2.31182C7.40014 2.02284 6.8833 1.99972 6.5779 1.61827C6.53091 0.624194 7.036 0.0693594 8.01094 0.0693594C15.9279 0.0693594 23.8567 0.0693594 31.7737 0.0578003C31.8207 0.0578003 31.8559 0.0693594 31.9029 0.0693594C32.5724 0.42769 32.8073 0.936289 32.7956 1.72231C32.7721 8.61151 32.7838 15.5007 32.7838 22.3784Z" fill="#54708E"/>
<path d="M3.07753 0.0693675C3.07753 12.819 3.07753 25.5687 3.07753 38.3183C2.0556 38.3183 1.03367 38.3183 0.0117463 38.3183C0.0117463 38.1565 0 38.0062 0 37.8444C0 25.6033 0 13.3738 0 1.15592C0 0.312108 0.305403 1.31307e-05 1.16288 0.0115722C1.79718 0.0231313 2.44323 -0.0462231 3.07753 0.0693675Z" fill="#526F8F"/>
<path d="M7.72904 2.32336C8.5043 2.64702 9.25606 3.00535 9.97258 3.44459C9.97258 3.6411 9.98433 3.84916 9.98433 4.04566C9.98433 14.969 9.98433 25.9039 9.98433 36.8272C7.85825 38.1333 5.73217 39.4511 3.6061 40.7572C3.44165 40.8613 3.26546 40.9075 3.07751 40.9306C3.07751 40.0521 3.07751 39.1852 3.07751 38.3067C3.51213 38.2836 3.82928 38.0062 4.16992 37.7981C5.19184 37.1855 6.19028 36.5382 7.21221 35.9256C7.59983 35.6944 7.72904 35.3938 7.72904 34.9662C7.72904 24.0891 7.72904 13.2004 7.72904 2.32336Z" fill="#3A4E65"/>
<path d="M26.1002 27.9267C27.7095 27.9267 29.3305 27.9267 30.9397 27.9267C30.9397 30.8974 30.9397 33.8681 30.9397 36.8272C29.3305 36.8272 27.7095 36.8272 26.1002 36.8272C26.1002 33.8681 26.1002 30.8974 26.1002 27.9267Z" fill="#E7D146"/>
<path d="M32.7839 22.3784C32.7839 15.4892 32.7721 8.61151 32.7956 1.72231C32.7956 0.94785 32.5724 0.427692 31.9029 0.069361C32.3023 0.069361 32.6899 0.0462429 33.0893 0.057802C33.794 0.0809201 34.3226 0.601078 34.3579 1.29462C34.3579 1.36398 34.3579 1.43333 34.3579 1.51424C34.3579 8.4728 34.3579 15.4198 34.3579 22.3784C33.841 22.3899 33.3124 22.3899 32.7839 22.3784Z" fill="#465E7B"/>
<path d="M30.9514 36.8388C30.9514 33.8681 30.9514 30.8974 30.9514 27.9383C31.5975 27.9383 32.2318 27.9383 32.8778 27.9383C32.8778 30.5506 32.8778 33.1745 32.8778 35.7869C32.8778 36.1568 32.8426 36.5267 32.6194 36.8503C32.0556 36.8388 31.5035 36.8388 30.9514 36.8388Z" fill="#526F8E"/>
<path d="M32.6077 36.8387C32.8426 36.5151 32.8661 36.1452 32.8661 35.7753C32.8661 33.163 32.8661 30.539 32.8661 27.9267C33.3594 27.9267 33.8645 27.9267 34.3579 27.9267C34.3579 30.6662 34.3579 33.4057 34.3579 36.1336C34.3579 36.7463 34.2639 36.8387 33.6531 36.8387C33.3124 36.8503 32.9601 36.8387 32.6077 36.8387Z" fill="#465E7B"/>
<path d="M3.07753 38.3068C3.07753 39.1853 3.07753 40.0522 3.07753 40.9307C2.31402 41.0347 1.53876 41 0.775254 40.9538C0.270164 40.9191 0 40.5377 0 40.0291C0 39.4511 0.0117463 38.8847 0.0117463 38.3068C1.03367 38.3068 2.0556 38.3068 3.07753 38.3068Z" fill="#465E7B"/>
<path d="M26.1002 3.44463C27.6037 3.44463 29.119 3.44463 30.6226 3.42151C30.9749 3.42151 30.9397 3.61801 30.9397 3.83764C30.9397 5.54838 30.9397 7.27068 30.9397 8.98142C30.9397 13.4548 30.9397 17.9166 30.9397 22.3899C29.3305 22.3899 27.7095 22.3899 26.1002 22.3899C26.1002 19.084 26.1002 15.7666 26.1002 12.4607C26.4761 12.3682 26.5701 12.5185 26.5583 12.8768C26.5348 14.0558 26.5466 15.2349 26.5583 16.4139C26.5583 16.8994 26.8402 17.1999 27.2514 17.1883C27.639 17.1768 27.8739 16.8878 27.8739 16.4023C27.8739 15.2695 27.8974 14.1252 27.8622 12.9924C27.8504 12.5532 27.9561 12.3798 28.426 12.426C28.9076 12.4607 29.1895 12.2064 29.2012 11.8018C29.213 11.3741 28.9428 11.143 28.426 11.1314C27.6507 11.1198 26.8755 11.1198 26.1002 11.1198C26.1002 8.56529 26.1002 6.01074 26.1002 3.44463Z" fill="#E7D146"/>
<path d="M16.5153 16.4948C16.5035 16.3329 16.621 16.1711 16.7385 16.0093C17.1613 15.4198 17.5724 14.8303 18.0071 14.2523C18.1363 14.0674 18.148 13.9402 18.0071 13.7553C17.6429 13.2698 17.2905 12.7728 16.9499 12.2757C16.668 11.8712 16.715 11.4666 17.0556 11.2585C17.3845 11.0505 17.7369 11.1429 18.0305 11.5359C18.3007 11.8943 18.5591 12.2526 18.8175 12.6341C18.9585 12.8537 19.0525 12.8306 19.1817 12.6225C19.4401 12.241 19.7103 11.8596 19.9922 11.4897C20.2623 11.1314 20.6147 11.0505 20.9436 11.2585C21.2725 11.4666 21.3195 11.8596 21.0611 12.241C20.7204 12.7381 20.3681 13.2351 20.0039 13.7206C19.8395 13.9287 19.8512 14.0789 20.0039 14.287C20.4385 14.8649 20.8497 15.4545 21.2725 16.044C21.5662 16.4601 21.5192 16.8415 21.1903 17.0727C20.8614 17.3039 20.4973 17.2114 20.1919 16.7837C19.8512 16.3214 19.5106 15.8475 19.1817 15.3735C19.029 15.1539 18.9468 15.1886 18.8058 15.3851C18.4534 15.8937 18.0893 16.4023 17.7134 16.8993C17.5255 17.1536 17.267 17.2692 16.9381 17.1421C16.6797 17.0496 16.527 16.8531 16.5153 16.4948Z" fill="#3D5065"/>
<path d="M12.2162 14.1599C12.2162 13.4085 12.2162 12.6572 12.2162 11.9174C12.2162 11.4204 12.4628 11.1776 12.9679 11.1661C13.567 11.1545 14.166 11.1545 14.7651 11.1661C15.2349 11.1776 15.5404 11.4319 15.5404 11.8134C15.5404 12.1948 15.2467 12.4607 14.7768 12.4607C14.4832 12.4607 14.1895 12.4838 13.8959 12.4607C13.5787 12.426 13.5082 12.5647 13.5082 12.8537C13.52 13.5126 13.5082 13.5126 14.1895 13.5126C14.3305 13.5126 14.4832 13.501 14.6241 13.5126C15.1057 13.5357 15.3759 13.79 15.3642 14.183C15.3524 14.5644 15.1057 14.7841 14.6359 14.8187C14.4949 14.8303 14.3422 14.8187 14.2013 14.8187C13.5435 14.8187 13.332 15.1077 13.52 15.7319C13.567 15.8937 13.6727 15.8706 13.7902 15.8822C14.1425 15.8822 14.4949 15.8706 14.8473 15.8822C15.2584 15.8937 15.5286 16.1596 15.5404 16.5179C15.5404 16.8531 15.2937 17.1537 14.9061 17.1652C14.2248 17.1883 13.5317 17.1883 12.8387 17.1652C12.4276 17.1537 12.2044 16.8762 12.2044 16.437C12.2044 15.6857 12.2162 14.9228 12.2162 14.1599Z" fill="#3D5065"/>
<path d="M26.1002 11.1314C26.8755 11.1314 27.6507 11.143 28.426 11.143C28.9428 11.143 29.213 11.3857 29.2012 11.8134C29.1895 12.2064 28.9076 12.4723 28.426 12.4376C27.9561 12.4029 27.8504 12.5647 27.8622 13.004C27.8974 14.1368 27.8739 15.2811 27.8739 16.4139C27.8739 16.8878 27.639 17.1768 27.2514 17.1999C26.852 17.2115 26.5701 16.9109 26.5583 16.4255C26.5466 15.2464 26.5466 14.0674 26.5583 12.8884C26.5701 12.5301 26.4761 12.3682 26.1002 12.4723C25.8418 12.4607 25.5716 12.4491 25.3955 12.218C25.2428 12.0215 25.184 11.8134 25.2897 11.5822C25.4307 11.1892 25.7596 11.143 26.1002 11.1314Z" fill="#3C5064"/>
<path d="M23.9154 14.183C23.9154 14.9343 23.9154 15.6857 23.9154 16.4254C23.9154 16.8878 23.6452 17.1883 23.2576 17.1768C22.87 17.1652 22.5998 16.8647 22.5998 16.4139C22.5881 14.8996 22.5881 13.3854 22.5998 11.8827C22.5998 11.4088 22.8582 11.1429 23.2694 11.1429C23.6922 11.1429 23.9154 11.3972 23.9154 11.8943C23.9272 12.6572 23.9154 13.4201 23.9154 14.183Z" fill="#3D5165"/>
<path d="M5.00392 21.9044C4.92169 21.234 5.49726 20.8526 6.04933 20.841C6.60141 20.8294 7.12999 21.3727 7.11824 21.9391C7.1065 22.5055 6.56617 23.0141 6.00235 22.991C5.47377 22.9794 5.00392 22.4708 5.00392 21.9044Z" fill="#3A4E65"/>
</svg>
