<svg width="51" height="51" viewBox="0 0 51 51" fill="none" xmlns="http://www.w3.org/2000/svg">
<path d="M45.5207 40.0401C44.9127 40.0553 44.3046 40.0553 43.7118 40.0705C43.7118 36.4221 43.7118 32.7738 43.6966 29.1407C43.6966 28.259 43.6966 27.3773 43.6814 26.5109C43.6814 24.3067 43.7118 22.0873 43.6814 19.8831C43.6662 18.2109 42.222 16.6756 40.7627 16.4932C39.9114 16.3868 39.0753 16.4324 38.2241 16.4324C35.9591 16.4324 33.6789 16.4324 31.4139 16.4324C29.3313 16.4324 27.2487 16.402 25.1661 16.4324C24.6493 16.4324 24.2844 16.3107 23.9196 15.9307C22.4907 14.4562 21.0313 13.0273 19.5872 11.5831C19.1616 11.1575 18.6903 10.9447 18.0671 10.9447C16.2885 10.9599 14.5099 10.9447 12.7314 10.9295C12.7314 7.29634 12.7314 3.67842 12.7314 0.0452917C16.927 0.0452917 21.1377 0.0300903 25.3333 0.0300903C25.9414 0.0300903 26.4734 0.273312 26.9295 0.729353C28.3736 2.20388 29.8481 3.64801 31.2922 5.12255C31.5507 5.38097 31.8091 5.48738 32.1891 5.48738C36.3847 5.47218 40.5955 5.47218 44.7911 5.48738C45.0191 5.48738 45.2471 5.50258 45.4751 5.50258C45.5207 17.01 45.5207 28.5174 45.5207 40.0401Z" fill="#F2D648"/>
<path d="M45.5208 40.0401C45.5208 28.5326 45.5208 17.01 45.5208 5.50256C46.372 5.51776 47.2081 5.47216 48.0594 5.57857C49.5339 5.76099 50.9781 7.32673 50.9781 9.02928C50.9781 18.1957 50.9933 27.3621 50.9781 36.5285C50.9781 38.5351 49.2451 40.0857 47.4057 40.0705C46.7673 40.0553 46.144 40.0401 45.5208 40.0401Z" fill="#EBBE3F"/>
<path d="M38.2393 50.9547C38.0721 50.9547 37.9049 50.9699 37.7224 50.9699C27.1423 50.9699 16.5621 50.9699 5.98199 50.9699C5.81478 50.9699 5.64757 50.9547 5.46515 50.9547C5.46515 49.1457 5.46515 47.3215 5.46515 45.5126C16.3797 45.5126 27.3095 45.5126 38.2241 45.5126C38.2393 47.3215 38.2393 49.1457 38.2393 50.9547Z" fill="#EBBE3F"/>
<path d="M12.7618 10.9142C14.5404 10.9142 16.3189 10.9446 18.0975 10.9294C18.7055 10.9294 19.192 11.1271 19.6176 11.5679C21.0618 13.012 22.5211 14.441 23.95 15.9155C24.3148 16.2955 24.6797 16.4171 25.1965 16.4171C27.2791 16.4019 29.3617 16.4171 31.4443 16.4171C32.4932 16.9036 32.9796 17.6789 32.782 18.5757C32.5844 19.4422 31.8395 20.0807 30.6538 20.0503C28.3888 20.0047 26.1086 20.0351 23.8436 20.0351C23.2355 20.0351 22.7643 19.8374 22.3235 19.3966C20.8337 17.8765 19.3288 16.4019 17.8391 14.8818C17.611 14.6538 17.3678 14.5474 17.0486 14.5474C13.4003 14.5626 9.73673 14.5626 6.08841 14.5474C5.64757 14.5474 5.51075 14.6538 5.51075 15.125C5.52595 17.9677 5.52595 20.8103 5.52595 23.653C4.67468 23.6682 3.8082 23.577 2.97213 23.729C1.43679 24.0026 0.539907 25.0515 0.0686646 26.5108C0.0686646 22.7257 0.0686646 18.9406 0.0686646 15.1554C0.114269 15.2162 0.159873 15.2618 0.205477 15.3378C0.615914 16.0827 1.23917 16.4931 2.10565 16.3867C2.94172 16.2803 3.48897 15.7787 3.65619 14.9578C3.73219 14.5626 4.00582 14.5626 4.24904 14.4866C5.26753 14.1369 5.75397 13.164 5.41954 12.1456C5.22193 11.5527 4.75069 11.2639 4.27944 10.9599C5.29793 10.9446 6.31643 10.9446 7.33492 10.9294C9.12868 10.9142 10.9376 10.9142 12.7618 10.9142Z" fill="#7E8E99"/>
<path d="M0.0382727 45.5126C0.0382727 41.621 0.0230713 37.7295 0.0230713 33.8379C0.0230713 32.2722 0.0382727 30.7064 0.0382727 29.1255C1.84724 29.1255 3.6714 29.1255 5.48036 29.1255C5.48036 34.5828 5.48036 40.0401 5.48036 45.4974C3.6714 45.5126 1.86244 45.5126 0.0382727 45.5126Z" fill="#F9EC64"/>
<path d="M43.6966 29.1255C43.6966 32.7738 43.6966 36.4221 43.7118 40.0553C43.6966 41.8642 43.6966 43.6884 43.6814 45.4974C41.8724 45.4974 40.0483 45.4974 38.2393 45.4974C38.2393 40.0401 38.2393 34.5828 38.2393 29.1255C40.0635 29.1255 41.8725 29.1255 43.6966 29.1255Z" fill="#EBBE3F"/>
<path d="M12.7618 10.9143C10.9376 10.9143 9.12867 10.9143 7.3045 10.9143C7.3045 8.45165 7.3045 6.00423 7.3045 3.54161C7.3045 1.62624 8.91585 0.0148926 10.8464 0.0148926C11.4849 0.0148926 12.1233 0.0300939 12.777 0.0300939C12.7618 3.66322 12.7618 7.28114 12.7618 10.9143Z" fill="#F9EC64"/>
<path d="M0.0382652 45.5126C1.84723 45.5126 3.67139 45.5126 5.48035 45.5126C5.48035 47.3215 5.48035 49.1457 5.48035 50.9546C4.53787 50.9394 3.59539 51.0763 2.6681 50.8634C1.19357 50.529 -0.113748 48.8873 0.00786247 47.3823C0.0686679 46.7591 0.0382652 46.1358 0.0382652 45.5126Z" fill="#F2D648"/>
<path d="M5.48036 29.1407C3.6714 29.1407 1.84723 29.1407 0.038269 29.1407C0.038269 28.2591 0.038269 27.3926 0.038269 26.5109C0.509512 25.0668 1.39119 24.0027 2.94173 23.729C3.7626 23.577 4.64428 23.6682 5.49556 23.653L5.48036 23.6834C5.48036 25.5076 5.48036 27.3166 5.48036 29.1407Z" fill="#F2D648"/>
<path d="M38.2393 45.5126C40.0483 45.5126 41.8724 45.5126 43.6814 45.5126C43.651 46.5615 43.8486 47.6104 43.4838 48.6289C43.0278 49.9058 41.6444 50.9547 40.2763 50.9699C39.5922 50.9699 38.9234 50.9547 38.2393 50.9547C38.2393 49.1457 38.2393 47.3215 38.2393 45.5126Z" fill="#E4A537"/>
<path d="M4.23384 10.9447C4.70508 11.2639 5.17632 11.5528 5.37394 12.1304C5.70837 13.1489 5.22192 14.137 4.20343 14.4714C3.96021 14.5474 3.68659 14.5474 3.61058 14.9427C3.44336 15.7635 2.88091 16.2652 2.06004 16.3716C1.19356 16.478 0.570306 16.0676 0.159869 15.3227C0.129466 15.2619 0.0686609 15.2011 0.0230568 15.1403C-0.05295 12.9361 0.919937 11.492 2.83531 11.0055C3.30655 10.8839 3.77779 10.9447 4.23384 10.9447Z" fill="#94A2AB"/>
<path d="M5.49555 23.653C5.49555 20.8104 5.49555 17.9677 5.48035 15.1251C5.48035 14.669 5.61716 14.5474 6.058 14.5474C9.70633 14.5626 13.3699 14.5626 17.0182 14.5474C17.3526 14.5474 17.5806 14.6386 17.8087 14.8819C19.2984 16.3868 20.8185 17.8765 22.2931 19.3967C22.7187 19.8375 23.2051 20.0351 23.8132 20.0351C26.0782 20.0199 28.3584 19.9895 30.6234 20.0503C31.7939 20.0807 32.554 19.4423 32.7516 18.5758C32.9492 17.6789 32.478 16.9036 31.4139 16.4172C33.6789 16.4172 35.9591 16.4172 38.2241 16.4172C38.2241 18.8342 38.2241 21.2512 38.2241 23.653L38.2393 23.6986C38.0721 23.6986 37.9049 23.6834 37.7224 23.6834C27.1423 23.6834 16.5621 23.6834 5.98199 23.6834C5.81478 23.6834 5.64757 23.6986 5.46515 23.6986L5.49555 23.653Z" fill="#697C88"/>
<path d="M38.2393 23.653C38.2393 21.236 38.2393 18.819 38.2393 16.4172C39.0906 16.4324 39.9267 16.3868 40.778 16.478C42.2373 16.6604 43.6814 18.1957 43.6966 19.8679C43.7118 22.0721 43.6966 24.2915 43.6966 26.4957C43.2102 25.0668 42.3285 24.0027 40.7932 23.729C39.9571 23.577 39.0906 23.6682 38.2393 23.653Z" fill="#5D6E78"/>
<path d="M38.2393 23.653C39.0906 23.6682 39.9571 23.577 40.7932 23.729C42.3285 24.0027 43.2102 25.0668 43.6966 26.4957C43.6966 27.3774 43.6966 28.259 43.7118 29.1255C41.8877 29.1255 40.0787 29.1255 38.2545 29.1255C38.2545 27.3166 38.2545 25.4924 38.2545 23.6834L38.2393 23.653Z" fill="#E4A537"/>
<path d="M38.2393 29.1407C38.2393 34.598 38.2393 40.0553 38.2393 45.5126C27.3247 45.5126 16.3949 45.5126 5.48035 45.5126C5.48035 40.0553 5.48035 34.598 5.48035 29.1407C16.4101 29.1255 27.3247 29.1255 38.2393 29.1407Z" fill="#F2D648"/>
<path d="M38.2393 29.1407C27.3247 29.1407 16.4101 29.1407 5.48035 29.1407C5.48035 27.3317 5.48035 25.5076 5.46515 23.6986C5.63236 23.6986 5.79958 23.6834 5.98199 23.6834C16.5621 23.6834 27.1423 23.6834 37.7224 23.6834C37.8897 23.6834 38.0569 23.6986 38.2393 23.6986C38.2393 25.5076 38.2393 27.3165 38.2393 29.1407Z" fill="#EBBE3F"/>
</svg>
