<svg width="155" height="152" viewBox="0 0 155 152" fill="none" xmlns="http://www.w3.org/2000/svg">
<g filter="url(#filter0_d_6_144)">
<path d="M10.0001 40C10.0001 23.4315 23.4315 10 40.0001 10H114.708C131.277 10 144.708 23.4315 144.708 40V108.218H10.0001V40Z" fill="#EAEAEA"/>
<path d="M121.082 102.795C124.214 103.679 127.48 103.813 130.666 104.375C132.942 104.777 135.245 105.072 137.494 105.339C139.502 105.554 141.51 106.009 143.544 105.982C144.294 105.982 144.642 106.116 144.642 107C144.535 117.769 140.68 126.796 132.46 133.841C125.847 139.493 118.163 141.984 109.516 141.957C87.7224 141.904 65.9023 141.957 44.109 141.93C27.3222 141.93 12.838 129.448 10.3481 112.84C10.1339 111.34 10.0268 109.813 10.0268 108.313C10 97.2498 10 86.1868 10 75.1239C10 74.7756 10.0268 74.4274 10.0803 73.8649C15.4349 77.8561 21.4054 80.1866 27.5096 82.4635C27.7506 81.6599 27.2151 81.017 27.3758 80.3205C27.8041 80.8562 27.8844 81.5259 27.938 82.1688C27.9648 82.6242 28.0451 82.9456 28.6073 82.9724C30.1066 83.0528 31.3917 83.8028 32.7839 84.2582C38.674 86.2136 44.6176 87.9012 50.6148 89.4281C56.7459 90.9817 62.9037 92.4818 69.0883 93.8479C75.139 95.1872 81.2165 96.3391 87.3208 97.4373C91.3367 98.1606 95.3259 98.8303 99.3419 99.5267C100.145 99.6607 100.573 99.4731 100.493 98.616C100.814 99.3124 101.082 100.009 102.019 100.036C103.304 100.089 104.589 100.116 105.821 100.571C107.749 100.598 109.569 101.429 111.497 101.268C111.524 101.857 111.979 101.643 112.3 101.67C112.996 101.75 113.719 101.696 114.415 101.83C116.611 102.313 118.779 102.902 121.082 102.795ZM41.5923 119.804C41.5923 123.367 41.5923 126.93 41.5923 130.519C41.5923 130.573 41.5923 130.6 41.5923 130.653C41.5387 131.296 41.6191 131.751 42.5026 131.725C45.9295 131.671 49.3833 131.805 52.8102 131.644C57.4687 131.457 60.6815 128.724 62.0202 124.251C62.636 122.188 62.5289 120.126 62.4753 118.036C62.395 113.268 59.0751 109.197 54.3631 108.447C50.3471 107.804 46.2776 108.286 42.2081 108.179C41.4049 108.152 41.5923 108.795 41.5923 109.25C41.5655 112.759 41.5923 116.295 41.5923 119.804ZM88.1775 121.412C88.1775 114.179 85.4199 109.947 80.4133 108.179C75.2193 106.357 69.1954 108.393 66.6519 112.974C64.1085 117.501 64.1085 122.215 66.5716 126.715C69.8379 132.609 76.3973 133.305 81.1362 131.43C86.0892 129.528 88.124 125.269 88.1775 121.412ZM109.703 116.135C110.185 116.135 110.694 116.081 111.176 116.135C112.113 116.215 112.354 115.867 112.113 114.956C111.684 113.429 111.095 112.009 109.998 110.831C106.651 107.241 100.118 106.465 95.8079 109.224C92.4077 111.393 90.8281 114.635 90.4265 118.599C89.7304 125.778 94.2015 132.582 102.555 132.234C107.642 132.019 111.631 128.564 112.38 123.528C112.488 122.805 112.3 122.563 111.577 122.59C110.56 122.617 109.516 122.644 108.498 122.59C107.695 122.537 107.32 122.831 107.133 123.635C106.517 126.18 104.937 127.599 102.608 127.894C100.279 128.189 97.8158 127.01 96.7717 124.921C95.0582 121.599 95.1385 118.197 96.8252 114.902C97.3875 113.831 98.1907 112.706 99.4758 112.492C100.788 112.277 101.992 111.742 103.545 112.277C105.232 112.867 106.356 113.751 106.972 115.251C107.294 116.001 107.642 116.188 108.338 116.135C108.82 116.108 109.248 116.135 109.703 116.135Z" fill="#528EF3"/>
<path d="M100.295 98.6159C100.375 99.4999 99.9471 99.6606 99.1439 99.5267C95.128 98.8034 91.112 98.1605 87.1228 97.4373C81.0185 96.339 74.941 95.1872 68.8903 93.8479C62.7057 92.4817 56.5479 90.9817 50.4169 89.428C44.4197 87.9012 38.4493 86.2404 32.5859 84.2581C31.2205 83.8028 29.9086 83.0527 28.4093 82.9724C27.8739 82.9456 27.7936 82.6241 27.74 82.1688C27.6865 81.5259 27.6062 80.8562 27.1778 80.3205C25.9462 74.722 24.7147 69.1236 23.4831 63.4983C21.7696 55.623 20.1364 47.7476 18.3962 39.8991C17.6733 36.4168 18.6372 33.7113 21.3412 32.3451C22.8405 31.5951 24.5005 31.4612 26.1069 31.113C36.0129 28.9432 45.9457 26.827 55.8518 24.7109C63.0805 23.184 70.2825 21.6572 77.5113 20.1571C80.7776 19.4874 83.8297 21.6304 84.5258 24.9788C85.2487 28.461 85.9983 31.9433 86.748 35.3989C86.8015 35.6935 86.9622 35.9882 87.0693 36.256C87.1228 38.6401 88.0599 40.8634 88.3811 43.2206C88.6489 45.1493 89.4788 46.9976 89.7466 48.9262C90.3088 53.1854 91.4868 57.3105 92.3703 61.4625C92.9326 64.0608 93.2806 66.6859 94.0035 69.2575C94.4854 70.9451 94.7531 72.7398 95.1012 74.4809C95.6099 76.9453 96.2257 79.3829 96.7344 81.8473C97.1627 83.9099 97.4305 85.9993 97.9391 88.0083C98.5282 90.3388 98.9565 92.6692 99.5188 94.9997C99.8668 96.2587 99.8668 97.4909 100.295 98.6159ZM74.7001 57.8463C74.4591 56.7212 74.2985 55.8105 74.0843 54.8997C73.9504 54.3372 73.5221 54.4176 73.1205 54.4979C71.7818 54.7926 70.4164 55.0604 69.0777 55.3551C60.3765 57.2302 51.6752 59.1053 42.9739 60.9536C40.0557 61.5697 40.0824 61.5161 40.5911 64.3823C40.7518 65.2662 41.0998 65.3198 41.8494 65.1591C50.042 63.3912 58.2614 61.65 66.454 59.9089C68.9439 59.3731 71.407 58.8374 73.8969 58.3284C74.2985 58.2213 74.7536 58.2213 74.7001 57.8463ZM72.8527 49.2477C72.7189 48.5512 72.5582 47.8548 72.4511 47.1583C72.344 46.4083 72.0228 46.1404 71.1928 46.3279C61.0726 48.5244 50.9255 50.6406 40.8053 52.8103C38.0744 53.3996 38.1012 53.4264 38.8509 56.2391C39.065 57.0427 39.3596 57.0962 40.1092 56.9355C47.1238 55.4087 54.1383 53.9354 61.1529 52.4621C64.7137 51.7121 68.3013 50.9353 71.8621 50.1584C72.344 50.0513 73.0134 50.1049 72.8527 49.2477ZM43.1613 73.4362C45.0355 73.0344 46.9096 72.6594 48.7837 72.2576C57.6188 70.3825 66.454 68.4807 75.2891 66.6056C76.0923 66.4449 76.601 66.3109 76.2797 65.1591C75.5568 62.6411 75.6371 62.5876 73.0669 63.1233C62.9199 65.2662 52.7729 67.436 42.6259 69.5789C42.3314 69.6325 41.8495 69.6325 41.903 70.0075C42.0636 71.1058 42.3046 72.204 42.5723 73.2755C42.6259 73.5434 42.9471 73.463 43.1613 73.4362ZM37.8335 48.7655C38.1548 48.7119 38.3689 48.6852 38.5831 48.6584C48.7301 46.5154 58.8504 44.3457 68.9974 42.2027C71.2731 41.7206 71.166 41.7206 70.7377 39.283C70.5235 38.0775 70.1219 37.9168 68.9974 38.1847C63.3483 39.4437 57.6991 40.5955 52.0232 41.8009C47.097 42.8456 42.1975 43.9439 37.2712 44.9618C36.6019 45.0957 36.4681 45.3636 36.6019 45.9529C36.7893 46.6761 36.95 47.4262 37.0838 48.1762C37.2177 48.6584 37.4319 48.8727 37.8335 48.7655Z" fill="#1D7DF6"/>
<path d="M100.295 98.6159C99.8668 97.4641 99.8668 96.2319 99.5723 95.0533C99.0101 92.7496 98.5817 90.3923 97.9927 88.0619C97.484 86.0261 97.2163 83.9367 96.7879 81.9009C96.2792 79.4365 95.6634 76.9989 95.1547 74.5345C94.8067 72.7934 94.539 70.9986 94.057 69.3111C93.3074 66.7395 92.9593 64.1144 92.4239 61.5161C91.5404 57.3373 90.3623 53.2121 89.8001 48.9798C89.5324 47.0511 88.7024 45.2029 88.4347 43.2742C88.1134 40.9169 87.1496 38.6936 87.1228 36.3096C87.1763 36.0685 87.2834 35.9078 87.5779 35.9614C94.1909 37.0596 100.884 37.5954 107.524 38.5329C110.228 38.9347 112.584 41.9081 112.29 44.6939C112.075 46.7297 111.781 48.7387 111.54 50.7745C110.951 53.9622 110.763 57.2034 110.308 60.4178C109.907 63.1233 109.559 65.8823 109.237 68.5878C108.889 71.5879 108.434 74.5881 108.166 77.5882C107.979 79.8651 107.256 82.0884 107.497 84.4189C107.524 84.5528 107.497 84.6867 107.444 84.8207C106.747 87.0172 106.667 89.2941 106.507 91.5442C106.346 93.6871 105.596 95.7765 105.864 97.973C105.891 98.1338 105.81 98.3213 105.703 98.4552C105.221 99.1517 105.329 99.8749 105.623 100.598C104.391 100.143 103.106 100.116 101.821 100.062C100.884 100.009 100.616 99.3124 100.295 98.6159Z" fill="#85CC24"/>
<path d="M105.623 100.598C105.355 99.8749 105.221 99.1517 105.703 98.4552C105.81 98.3213 105.891 98.107 105.864 97.973C105.623 95.7765 106.373 93.6871 106.507 91.5442C106.667 89.2941 106.748 87.0172 107.444 84.8207C107.47 84.6867 107.497 84.5528 107.497 84.4189C107.256 82.1152 107.979 79.8651 108.166 77.5882C108.407 74.5881 108.863 71.588 109.237 68.5878C109.559 65.8556 109.907 63.1233 110.308 60.4178C110.763 57.2034 110.951 53.9622 111.54 50.7745C115.127 52.0335 118.742 53.1854 122.249 54.5515C125.114 55.6765 126.56 58.4624 125.435 61.9715C124.953 63.4447 124.07 64.8644 124.177 66.5252C124.016 66.686 123.802 66.8199 123.722 67.0074C122.597 70.2218 121.446 73.4362 120.402 76.7043C119.625 79.1151 118.554 81.4187 118.019 83.9099C117.644 85.5975 116.68 87.1244 116.145 88.7851C114.94 92.6157 113.655 96.4462 112.343 100.25C112.156 100.812 111.915 101.214 111.299 101.295C109.371 101.455 107.551 100.625 105.623 100.598Z" fill="#FDA22D"/>
<path d="M111.299 101.295C111.915 101.214 112.156 100.812 112.343 100.25C113.655 96.4462 114.94 92.6425 116.145 88.7852C116.654 87.1244 117.644 85.5975 118.019 83.91C118.554 81.4188 119.625 79.1151 120.402 76.7043C121.446 73.4631 122.597 70.2486 123.722 67.0074C123.775 66.8199 124.016 66.686 124.177 66.5253C126.988 68.1325 129.879 69.6058 132.61 71.3469C135.207 73.0077 135.877 76.2757 134.351 79.0347C130.602 85.7315 126.774 92.4014 122.999 99.0981C122.303 100.33 121.607 101.589 120.937 102.822C118.635 102.929 116.466 102.339 114.244 101.884C113.548 101.75 112.825 101.804 112.129 101.723C111.808 101.67 111.326 101.884 111.299 101.295Z" fill="#F16160"/>
<path d="M41.4211 119.804C41.4211 116.269 41.4211 112.759 41.4211 109.224C41.4211 108.768 41.2337 108.152 42.0369 108.152C46.0796 108.259 50.1491 107.75 54.1919 108.42C58.8772 109.197 62.197 113.242 62.3041 118.01C62.3309 120.099 62.4648 122.162 61.849 124.224C60.5103 128.698 57.2975 131.43 52.639 131.617C49.2121 131.751 45.7851 131.644 42.3314 131.698C41.4478 131.698 41.3943 131.269 41.4211 130.626C41.4211 130.573 41.4211 130.546 41.4211 130.492C41.4211 126.956 41.4211 123.394 41.4211 119.804ZM46.5883 119.938C46.5883 122.028 46.6151 124.117 46.5615 126.233C46.5347 127.064 46.7757 127.465 47.686 127.412C48.9175 127.358 50.1759 127.412 51.4342 127.385C54.0848 127.305 55.9589 125.858 56.7621 123.313C57.3511 121.492 57.2975 119.644 56.9763 117.769C56.4408 114.661 54.9415 113.215 51.8358 112.625C50.4704 112.384 49.0782 112.572 47.7128 112.465C46.8292 112.411 46.5347 112.786 46.5615 113.643C46.6151 115.76 46.5883 117.849 46.5883 119.938Z" fill="#F6FCFD"/>
<path d="M88.0063 121.412C87.9527 125.269 85.918 129.528 80.9649 131.457C76.2261 133.305 69.6667 132.635 66.4004 126.742C63.9105 122.242 63.9372 117.527 66.4807 113C69.0509 108.42 75.0748 106.384 80.2421 108.206C85.2219 109.947 88.0063 114.179 88.0063 121.412ZM69.9612 120.688C69.988 121.09 69.9612 121.492 70.0415 121.894C70.4699 124.331 71.3802 126.474 73.8701 127.439C76.3332 128.376 78.7428 128.162 80.6704 126.206C83.6958 123.18 83.5352 116.108 80.1617 113.215C77.3773 110.831 72.8527 111.795 71.0321 115.01C70.0683 116.777 69.8809 118.706 69.9612 120.688Z" fill="#F6FCFD"/>
<path d="M109.532 116.135C109.077 116.135 108.648 116.108 108.193 116.135C107.497 116.188 107.149 116.001 106.828 115.251C106.185 113.751 105.061 112.867 103.401 112.277C101.875 111.742 100.643 112.277 99.3314 112.492C98.0463 112.706 97.2163 113.804 96.6809 114.902C94.9942 118.197 94.9406 121.599 96.6273 124.921C97.6983 127.01 100.161 128.189 102.464 127.894C104.82 127.599 106.373 126.153 106.989 123.635C107.176 122.831 107.524 122.537 108.354 122.59C109.371 122.671 110.415 122.644 111.433 122.59C112.156 122.563 112.343 122.805 112.236 123.528C111.46 128.564 107.497 132.019 102.41 132.234C94.0571 132.582 89.586 125.778 90.2821 118.599C90.6569 114.635 92.2365 111.393 95.6635 109.224C99.974 106.465 106.507 107.215 109.853 110.831C110.951 112.009 111.54 113.429 111.968 114.956C112.209 115.867 111.942 116.215 111.031 116.135C110.523 116.081 110.014 116.135 109.532 116.135Z" fill="#F6FCFD"/>
<path d="M74.7001 57.8464C74.7536 58.2214 74.2985 58.2214 73.8969 58.3018C71.407 58.8375 68.9438 59.3733 66.4539 59.8822C58.2346 61.6234 50.042 63.3645 41.8494 65.1324C41.0998 65.2932 40.7517 65.2396 40.5911 64.3556C40.0824 61.4894 40.0556 61.543 42.9739 60.9269C51.6752 59.0786 60.3764 57.2035 69.0777 55.3284C70.4164 55.0338 71.7818 54.7659 73.1204 54.4713C73.522 54.3909 73.9504 54.3105 74.0843 54.8731C74.2985 55.8106 74.4859 56.7214 74.7001 57.8464Z" fill="#F6FCFD"/>
<path d="M72.8528 49.2477C73.0402 50.1049 72.3441 50.0513 71.8621 50.1585C68.3013 50.9353 64.7137 51.6853 61.1529 52.4621C54.1383 53.9622 47.1238 55.4087 40.1092 56.9355C39.3328 57.0963 39.0651 57.0427 38.8509 56.2391C38.128 53.4265 38.0745 53.3997 40.8053 52.8104C50.9256 50.6406 61.0726 48.4977 71.1928 46.3279C72.0228 46.1404 72.3173 46.4083 72.4512 47.1583C72.5582 47.8548 72.7189 48.5513 72.8528 49.2477Z" fill="#F6FCFD"/>
<path d="M43.1613 73.4363C42.9471 73.4363 42.6259 73.5167 42.5723 73.2756C42.3046 72.2041 42.0636 71.1059 41.903 70.0076C41.8494 69.6326 42.3313 69.6594 42.6258 69.579C52.7729 67.4361 62.9199 65.2663 73.0669 63.1234C75.6639 62.5876 75.5568 62.6412 76.2797 65.1592C76.6009 66.311 76.0922 66.4449 75.2891 66.6057C66.4539 68.4807 57.6188 70.3826 48.7837 72.2577C46.9095 72.6595 45.0354 73.0613 43.1613 73.4363Z" fill="#F6FCFD"/>
<path d="M37.8335 48.7655C37.4319 48.8726 37.2177 48.6583 37.1106 48.1494C36.9767 47.3993 36.8161 46.6761 36.6287 45.9261C36.4948 45.3367 36.6287 45.0689 37.298 44.9349C42.2243 43.917 47.1237 42.8188 52.05 41.7741C57.6991 40.5687 63.375 39.4168 69.0242 38.1579C70.1486 37.9168 70.577 38.0507 70.7644 39.2561C71.1928 41.6669 71.2731 41.6937 69.0242 42.1759C58.8771 44.3456 48.7569 46.4886 38.6099 48.6315C38.3689 48.7119 38.1547 48.7387 37.8335 48.7655Z" fill="#F6FCFD"/>
<path d="M46.5883 119.938C46.5883 117.849 46.6151 115.76 46.5883 113.643C46.5616 112.786 46.8561 112.411 47.7396 112.465C49.105 112.545 50.4972 112.358 51.8626 112.626C54.9683 113.188 56.4408 114.661 57.0031 117.769C57.3243 119.644 57.3779 121.492 56.7889 123.314C55.9857 125.858 54.1116 127.305 51.461 127.385C50.2027 127.412 48.9711 127.358 47.7128 127.412C46.8025 127.465 46.5616 127.037 46.5883 126.233C46.6151 124.117 46.5883 122.028 46.5883 119.938Z" fill="#528EF3"/>
<path d="M69.9612 120.688C69.8809 118.706 70.0416 116.778 71.0589 115.01C72.8795 111.795 77.4042 110.831 80.1886 113.215C83.562 116.081 83.6958 123.18 80.6973 126.207C78.7696 128.135 76.36 128.376 73.8969 127.439C71.407 126.501 70.4967 124.331 70.0683 121.894C69.988 121.492 69.988 121.09 69.9612 120.688Z" fill="#528EF3"/>
<path d="M115.583 104.697H36.5752V135.234H115.583V104.697Z" fill="#528EF3"/>
</g>
<defs>
<filter id="filter0_d_6_144" x="0" y="0" width="154.708" height="151.957" filterUnits="userSpaceOnUse" color-interpolation-filters="sRGB">
<feFlood flood-opacity="0" result="BackgroundImageFix"/>
<feColorMatrix in="SourceAlpha" type="matrix" values="0 0 0 0 0 0 0 0 0 0 0 0 0 0 0 0 0 0 127 0" result="hardAlpha"/>
<feOffset/>
<feGaussianBlur stdDeviation="5"/>
<feComposite in2="hardAlpha" operator="out"/>
<feColorMatrix type="matrix" values="0 0 0 0 0 0 0 0 0 0 0 0 0 0 0 0 0 0 0.1 0"/>
<feBlend mode="normal" in2="BackgroundImageFix" result="effect1_dropShadow_6_144"/>
<feBlend mode="normal" in="SourceGraphic" in2="effect1_dropShadow_6_144" result="shape"/>
</filter>
</defs>
</svg>
