<svg width="47" height="64" viewBox="0 0 47 64" fill="none" xmlns="http://www.w3.org/2000/svg">
<path d="M6.92045 0C14.3165 0 21.7289 0 29.1249 0C29.1249 5.90368 29.1413 11.8074 29.1249 17.6946C29.1249 18.2866 29.2889 18.4675 29.8793 18.4675C35.5206 18.451 41.1619 18.451 46.8032 18.451C47.0984 18.6648 46.9672 18.9773 46.9672 19.2568C46.9672 30.9491 46.9672 42.6413 46.9672 54.3171C46.9672 54.6625 46.9672 55.0078 46.9344 55.3696C46.672 59.5959 43.1626 62.9835 38.948 63C28.6493 63.0329 18.3343 63.0164 8.03559 63C6.52687 63 5.11654 62.5889 3.8538 61.7666C1.22994 60.0399 0 57.5896 0 54.4487C0.0163992 39.155 0 23.8614 0 8.55129C0 8.27173 0 7.97572 0.0163992 7.69616C0.229588 4.17698 2.64026 1.20047 6.01849 0.279561C6.33008 0.197337 6.65806 0.230227 6.92045 0ZM19.1706 41.2106C19.1706 42.9702 19.1706 44.7298 19.1706 46.4894C19.1706 46.7032 19.0558 47.0156 19.4822 46.9992C21.1385 46.9499 22.7948 47.1308 24.4348 46.8841C27.4194 46.4565 29.1413 44.4503 29.2397 41.3751C29.3217 38.3657 27.6654 36.2443 24.7627 35.6523C23.09 35.3234 21.3845 35.5372 19.6954 35.4714C19.2526 35.455 19.1542 35.6194 19.1542 36.0305C19.1706 37.7737 19.1706 39.5004 19.1706 41.2106ZM9.10153 41.2106C9.10153 42.9702 9.11793 44.7298 9.10153 46.4894C9.10153 46.8676 9.18353 47.0321 9.59351 47.0156C10.2495 46.9827 10.9054 46.9827 11.5614 47.0156C11.9386 47.0321 12.0534 46.917 12.037 46.5387C12.0206 45.5027 12.0534 44.4503 12.0206 43.3978C12.0042 42.9538 12.1682 42.8387 12.5782 42.8551C13.2341 42.8716 13.8901 42.8716 14.5297 42.8222C16.4484 42.7071 17.7767 41.3751 17.9243 39.451C18.0719 37.5434 16.9403 36.0141 15.0544 35.6194C14.6445 35.5372 14.2017 35.5207 13.7753 35.5043C12.3814 35.4878 11.0038 35.5207 9.60991 35.4878C9.15073 35.4714 9.08514 35.6523 9.08514 36.047C9.11793 37.7737 9.10153 39.4839 9.10153 41.2106ZM30.7156 41.2435C30.7156 43.0031 30.732 44.7627 30.6992 46.5223C30.6992 46.9005 30.7812 47.0156 31.1748 46.9992C31.8308 46.9663 32.4867 46.9663 33.1427 46.9992C33.5363 47.0156 33.6675 46.9005 33.6675 46.4894C33.6347 45.3218 33.6839 44.1542 33.6511 42.9867C33.6347 42.4769 33.7167 42.2631 34.307 42.296C35.3402 42.3453 36.3897 42.296 37.4393 42.3124C37.7509 42.3124 37.8657 42.2138 37.8657 41.9013C37.8493 41.3751 37.8329 40.8324 37.8657 40.3062C37.8821 39.9115 37.7345 39.8128 37.3737 39.8293C36.6029 39.8457 35.8158 39.8293 35.045 39.8293C33.6183 39.8293 33.6183 39.8293 33.6675 38.3986C33.6839 38.0697 33.7659 37.971 34.0939 37.9875C35.0614 38.0039 36.0126 38.0039 36.9801 37.9875C37.6033 37.971 38.456 38.267 38.784 37.8559C39.0956 37.4612 38.8496 36.639 38.8988 36.0141C38.9316 35.5701 38.7676 35.4714 38.3412 35.4714C35.9962 35.4878 33.6347 35.4878 31.2896 35.4714C30.7976 35.4714 30.732 35.6358 30.732 36.0799C30.732 37.8066 30.7156 39.5333 30.7156 41.2435Z" fill="#C42A2E"/>
<path d="M29.2561 0C30.5844 1.41425 31.9128 2.82851 33.2575 4.24276C37.6853 8.88019 42.113 13.5012 46.5408 18.1386C46.6392 18.2373 46.7212 18.3524 46.8196 18.4675C41.1783 18.4675 35.537 18.4675 29.8957 18.484C29.3053 18.484 29.1413 18.3031 29.1413 17.711C29.1577 11.8074 29.1413 5.90368 29.1413 0.0164448C29.1741 0 29.2233 0 29.2561 0Z" fill="#D0676A"/>
<path d="M19.1706 41.2106C19.1706 39.4839 19.187 37.7737 19.1542 36.047C19.1542 35.6359 19.2362 35.4714 19.6954 35.4879C21.3845 35.5536 23.09 35.3399 24.7627 35.6688C27.6654 36.2443 29.3217 38.3821 29.2397 41.3915C29.1577 44.4667 27.4194 46.473 24.4347 46.9005C22.7948 47.1472 21.1221 46.9499 19.4822 47.0157C19.0558 47.0321 19.1706 46.7196 19.1706 46.5059C19.1542 44.7463 19.1706 42.9702 19.1706 41.2106ZM22.0241 41.2271C22.0241 41.8684 22.0241 42.4933 22.0241 43.1347C22.0241 44.6805 22.0241 44.6805 23.5984 44.4503C25.3367 44.2036 26.2551 43.1676 26.3043 41.3751C26.3534 39.5004 25.4843 38.3657 23.7296 38.0697C23.3196 38.0039 22.8768 38.0533 22.4504 38.0039C22.0897 37.971 22.0077 38.119 22.0241 38.4644C22.0405 39.3853 22.0241 40.3062 22.0241 41.2271Z" fill="#FDFCFC"/>
<path d="M9.10154 41.2107C9.10154 39.484 9.11793 37.7737 9.08514 36.047C9.08514 35.6359 9.15073 35.4714 9.60991 35.4879C11.0038 35.5208 12.3814 35.4879 13.7753 35.5043C14.2017 35.5043 14.6444 35.5208 15.0544 35.6194C16.9403 36.0141 18.0883 37.5435 17.9243 39.4511C17.7767 41.3751 16.4484 42.7071 14.5297 42.8222C13.8737 42.8551 13.2177 42.8716 12.5782 42.8551C12.1518 42.8387 12.0042 42.9702 12.0206 43.3978C12.0534 44.4338 12.0206 45.4863 12.037 46.5388C12.0534 46.917 11.9386 47.0321 11.5614 47.0157C10.9054 46.9828 10.2495 46.9828 9.59351 47.0157C9.16713 47.0485 9.08514 46.8841 9.10154 46.4894C9.10154 44.7298 9.10154 42.9702 9.10154 41.2107ZM12.0206 39.1386C12.0206 39.4511 12.0206 39.7471 12.0206 40.0595C12.0206 40.2569 12.0698 40.372 12.2994 40.3555C12.8733 40.3391 13.4473 40.3884 14.0213 40.3226C14.6608 40.2569 15.038 39.7635 15.0216 39.1386C15.0052 38.5137 14.5953 38.0861 13.9393 38.0204C13.6769 37.9875 13.4145 38.0039 13.1357 38.0039C12.0206 38.0039 12.0206 38.0039 12.0206 39.1386Z" fill="#FDFBFB"/>
<path d="M30.7156 41.2435C30.7156 39.5168 30.732 37.8066 30.6992 36.0799C30.6992 35.6523 30.7648 35.4714 31.2568 35.4714C33.6019 35.5043 35.9634 35.4878 38.3084 35.4714C38.7348 35.4714 38.8988 35.5701 38.866 36.0141C38.8168 36.639 39.0628 37.4777 38.7512 37.8559C38.4232 38.267 37.5705 37.971 36.9473 37.9875C35.9798 38.0039 35.0286 38.0039 34.0611 37.9875C33.7495 37.9875 33.6511 38.0861 33.6347 38.3986C33.5855 39.8293 33.5691 39.8293 35.0122 39.8293C35.783 39.8293 36.5701 39.8457 37.3409 39.8293C37.7017 39.8128 37.8493 39.9115 37.8329 40.3062C37.8001 40.8324 37.8001 41.3751 37.8329 41.9013C37.8493 42.2302 37.7345 42.3289 37.4065 42.3124C36.3569 42.296 35.3238 42.3453 34.2742 42.296C33.7003 42.2631 33.6019 42.4769 33.6183 42.9867C33.6511 44.1542 33.6183 45.3218 33.6347 46.4894C33.6511 46.9005 33.5199 47.0156 33.1099 46.9992C32.4539 46.9663 31.798 46.9663 31.142 46.9992C30.7484 47.0156 30.6664 46.8841 30.6664 46.5223C30.732 44.7791 30.7156 43.0031 30.7156 41.2435Z" fill="#FDFBFB"/>
<path d="M22.0241 41.2271C22.0241 40.3062 22.0405 39.3853 22.0241 38.4644C22.0241 38.1355 22.0897 37.9711 22.4505 38.0039C22.8768 38.0368 23.3196 37.9875 23.7296 38.0697C25.4843 38.3822 26.3371 39.5004 26.3043 41.3751C26.2551 43.1512 25.3367 44.1872 23.5984 44.4503C22.0241 44.6805 22.0241 44.6805 22.0241 43.1347C22.0241 42.4934 22.0241 41.852 22.0241 41.2271Z" fill="#C52C30"/>
<path d="M12.0206 39.1386C12.0206 38.0203 12.0206 38.0203 13.1357 38.0203C13.3981 38.0203 13.6769 38.0039 13.9393 38.0368C14.5952 38.1026 15.0052 38.5301 15.0216 39.155C15.038 39.7799 14.6608 40.2733 14.0213 40.3391C13.4473 40.4048 12.8733 40.3555 12.2994 40.372C12.0862 40.372 12.0206 40.2568 12.0206 40.076C12.037 39.7471 12.0206 39.4346 12.0206 39.1386Z" fill="#C52C30"/>
</svg>
