<svg width="47" height="65" viewBox="0 0 47 65" fill="none" xmlns="http://www.w3.org/2000/svg">
<path d="M6.92045 1C14.3165 1 21.7289 1 29.1249 1C29.1249 6.90368 29.1413 12.8074 29.1249 18.711C29.1249 19.3031 29.2725 19.484 29.8793 19.484C35.5206 19.4675 41.1619 19.4675 46.8032 19.4675C47.0984 19.6813 46.9672 19.9937 46.9672 20.2733C46.9672 31.9656 46.9672 43.6578 46.9672 55.3336C46.9672 55.679 46.9672 56.0243 46.9344 56.3861C46.672 60.6124 43.1626 64 38.948 64.0165C28.6493 64.0494 18.3343 64.0329 8.03559 64.0165C6.52687 64.0165 5.11654 63.6054 3.8538 62.7831C1.22994 61.04 0 58.5897 0 55.4487C0.0163992 40.1551 0 24.8614 0 9.5513C0 9.27173 0 8.97573 0.0163992 8.69617C0.229588 5.17698 2.64026 2.20047 6.01849 1.27956C6.33008 1.19734 6.67446 1.23023 6.92045 1ZM9.8723 40.3688C9.8723 42.112 9.8723 43.8551 9.8723 45.5983C9.8723 45.9272 9.93789 46.0752 10.2987 46.0588C10.971 46.0259 11.6434 46.0259 12.3158 46.0588C12.7093 46.0752 12.7913 45.9272 12.7913 45.5654C12.7749 44.5129 12.7913 43.4769 12.7749 42.4244C12.7749 42.0627 12.8569 41.9311 13.2505 41.9311C14.0213 41.9475 14.8084 41.9804 15.5792 41.8653C17.4815 41.5858 18.6786 40.188 18.6622 38.2639C18.6458 36.3399 17.4323 34.9256 15.5464 34.6954C13.8409 34.4816 12.119 34.6625 10.3971 34.5967C9.97069 34.5803 9.8395 34.6954 9.8559 35.1394C9.88869 36.8826 9.8723 38.6257 9.8723 40.3688ZM19.9086 40.3031C19.9086 42.0298 19.925 43.74 19.8922 45.4667C19.8758 45.9765 20.0398 46.0916 20.5154 46.0588C21.0893 46.0259 21.6633 46.0259 22.2373 46.0588C22.68 46.0916 22.844 45.993 22.8276 45.4996C22.7948 44.48 22.8276 43.444 22.8112 42.4244C22.8112 42.0462 22.9096 41.9311 23.2868 41.9311C24.0412 41.9475 24.7955 41.9804 25.5499 41.8653C27.5178 41.5693 28.6821 40.2537 28.6821 38.2639C28.6821 36.2905 27.485 34.9092 25.5499 34.679C23.7952 34.4816 22.0405 34.6461 20.2858 34.5967C19.843 34.5803 19.925 34.8763 19.925 35.1394C19.9086 36.8661 19.9086 38.5928 19.9086 40.3031ZM34.3398 34.6132C32.9295 34.6132 31.5192 34.6296 30.1089 34.6132C29.7481 34.6132 29.6005 34.6954 29.6169 35.0901C29.6497 35.5999 29.6661 36.1096 29.6169 36.6194C29.5841 37.0634 29.7809 37.1292 30.1417 37.1128C30.814 37.0963 31.4864 37.1457 32.1588 37.0963C32.6999 37.0634 32.8803 37.2114 32.8803 37.8035C32.8475 40.3853 32.8803 42.9671 32.8639 45.549C32.8639 45.9436 32.9459 46.1081 33.3723 46.0752C33.9627 46.0423 34.553 46.0259 35.1434 46.0752C35.6354 46.1081 35.7994 45.9765 35.783 45.4503C35.7502 42.8849 35.783 40.3195 35.7502 37.7706C35.7502 37.2772 35.8486 37.0799 36.3897 37.1128C37.0785 37.1621 37.7837 37.0963 38.4724 37.1292C38.8988 37.1457 39.112 37.0634 39.0628 36.5701C39.0136 36.1261 39.03 35.6656 39.0628 35.2216C39.0956 34.7776 38.9808 34.6132 38.4888 34.6296C37.1277 34.6296 35.7338 34.6132 34.3398 34.6132Z" fill="#C03610"/>
<path d="M29.2561 1.00003C30.732 2.56228 32.1916 4.12454 33.6675 5.68679C37.9313 10.1598 42.2115 14.6163 46.4752 19.0893C46.59 19.2044 46.6884 19.336 46.7868 19.4511C41.1455 19.4511 35.5042 19.4511 29.8629 19.4675C29.2725 19.4675 29.1085 19.2866 29.1085 18.6946C29.1249 12.7909 29.1085 6.88726 29.1085 0.983582C29.1741 1.00003 29.2233 1.00003 29.2561 1.00003Z" fill="#CE7052"/>
<path d="M9.8723 40.3689C9.8723 38.6257 9.88869 36.8826 9.8559 35.1394C9.8559 34.6954 9.97069 34.5803 10.3971 34.5967C12.119 34.6625 13.8409 34.4816 15.5464 34.6954C17.4323 34.9256 18.6458 36.3563 18.6622 38.2639C18.6786 40.188 17.4651 41.5693 15.5792 41.8653C14.8084 41.9805 14.0213 41.9476 13.2505 41.9311C12.8569 41.9311 12.7749 42.0462 12.7749 42.4245C12.7913 43.4769 12.7749 44.513 12.7913 45.5654C12.7913 45.9272 12.7094 46.0752 12.3158 46.0588C11.6434 46.0259 10.971 46.0259 10.2987 46.0588C9.93789 46.0752 9.8723 45.9272 9.8723 45.5983C9.8723 43.8552 9.8723 42.112 9.8723 40.3689ZM12.7913 38.2475C12.7913 38.527 12.7913 38.823 12.7913 39.1026C12.7913 39.3164 12.8405 39.4644 13.0865 39.448C13.6769 39.4315 14.2673 39.4973 14.8576 39.3822C15.4644 39.2506 15.776 38.8724 15.776 38.2639C15.776 37.6555 15.4644 37.2608 14.8576 37.1457C14.5625 37.0963 14.2509 37.0799 13.9393 37.0799C12.7913 37.0963 12.7913 37.0963 12.7913 38.2475Z" fill="#FDFCFB"/>
<path d="M19.9086 40.3031C19.9086 38.5764 19.9086 36.8661 19.9086 35.1394C19.9086 34.8927 19.8266 34.5967 20.2694 34.5967C22.0241 34.6461 23.7788 34.4816 25.5335 34.679C27.485 34.9092 28.6657 36.2906 28.6657 38.2639C28.6657 40.2537 27.5014 41.5693 25.5335 41.8653C24.7791 41.9804 24.0248 41.9311 23.2704 41.9311C22.8932 41.9311 22.7784 42.0462 22.7948 42.4245C22.8112 43.444 22.7784 44.4801 22.8112 45.4996C22.8276 45.993 22.6473 46.0916 22.2209 46.0588C21.6469 46.0259 21.0729 46.0259 20.499 46.0588C20.0398 46.0916 19.8758 45.9601 19.8758 45.4667C19.925 43.7565 19.9086 42.0298 19.9086 40.3031ZM22.7948 38.2804C22.7948 38.5435 22.7948 38.8066 22.7948 39.0862C22.7948 39.3328 22.844 39.4808 23.1228 39.4808C23.7132 39.4644 24.3036 39.5302 24.8939 39.4151C25.4843 39.2999 25.7631 38.9053 25.7959 38.3297C25.8287 37.787 25.4843 37.3266 24.9595 37.195C24.648 37.1292 24.32 37.1128 23.992 37.1128C22.7948 37.0799 22.7948 37.0963 22.7948 38.2804Z" fill="#FDFCFC"/>
<path d="M34.3398 34.6132C35.7338 34.6132 37.1277 34.6296 38.5052 34.5967C38.9808 34.5803 39.112 34.7447 39.0792 35.1887C39.0464 35.6328 39.03 36.0932 39.0792 36.5372C39.1284 37.0306 38.9316 37.1292 38.4888 37.0963C37.8001 37.0635 37.0949 37.1292 36.4061 37.0799C35.8814 37.047 35.7666 37.2443 35.7666 37.7377C35.783 40.3031 35.7666 42.8685 35.7994 45.4174C35.7994 45.9436 35.6518 46.0752 35.1598 46.0423C34.5694 45.993 33.9791 46.0094 33.3887 46.0423C32.9623 46.0752 32.8803 45.9107 32.8803 45.5161C32.8967 42.9342 32.8639 40.3524 32.8967 37.7706C32.8967 37.195 32.7327 37.0306 32.1752 37.0635C31.5028 37.1128 30.8304 37.0635 30.1581 37.0799C29.7809 37.0963 29.6005 37.0306 29.6333 36.5866C29.6825 36.0768 29.6661 35.567 29.6333 35.0572C29.6005 34.6625 29.7645 34.5803 30.1253 34.5803C31.5192 34.6296 32.9295 34.6132 34.3398 34.6132Z" fill="#FDFAFA"/>
<path d="M12.7914 38.2475C12.7914 37.0964 12.7914 37.0799 13.9393 37.0964C14.2509 37.0964 14.5461 37.1128 14.8576 37.1621C15.4644 37.2772 15.776 37.6719 15.776 38.2804C15.776 38.8888 15.4808 39.2671 14.8576 39.3986C14.2673 39.5137 13.6769 39.448 13.0865 39.4644C12.8405 39.4644 12.7914 39.3164 12.7914 39.1191C12.7914 38.8231 12.7914 38.5435 12.7914 38.2475Z" fill="#C23D19"/>
<path d="M22.7948 38.2804C22.7948 37.0964 22.7948 37.0799 23.9756 37.0964C24.3036 37.0964 24.6315 37.1128 24.9431 37.1786C25.4843 37.2937 25.8123 37.7706 25.7795 38.3133C25.7467 38.8888 25.4679 39.2835 24.8775 39.3986C24.2872 39.5137 23.6968 39.4479 23.1064 39.4644C22.8276 39.4808 22.762 39.3164 22.7784 39.0697C22.8112 38.8231 22.7948 38.5435 22.7948 38.2804Z" fill="#C3401C"/>
</svg>
