<svg width="48" height="66" viewBox="0 0 48 66" fill="none" xmlns="http://www.w3.org/2000/svg">
<path d="M6.92286 1C14.3215 1 21.7365 1 29.1351 1C29.1351 6.94727 29.1351 12.8945 29.1515 18.8585C29.1515 19.7606 29.1515 19.7606 30.0209 19.7606C35.615 19.7606 41.2255 19.7606 46.8195 19.7606C47.1148 19.9778 47 20.2952 47 20.5792C47 32.4737 47 44.3683 47 56.2628C47 56.5802 47 56.8809 46.9836 57.1983C46.7375 61.5252 43.2433 65 38.978 65C28.6757 65.0334 18.3571 65.0167 8.0548 65C6.85724 65 5.6925 64.7327 4.62618 64.1647C1.59127 62.5442 0.0164049 59.9882 0.0164049 56.5134C0 40.8267 0 25.1399 0 9.45314C0 9.26938 0 9.08561 0.0164049 8.88514C0.196859 5.3101 2.62478 2.23623 6.02059 1.284C6.31588 1.20047 6.66038 1.23388 6.92286 1ZM33.3019 35.865C31.9239 35.865 30.8084 36.3161 29.9881 37.2015C29.578 37.6358 29.3155 38.137 29.2499 38.7384C29.0367 40.3756 29.7421 41.5951 31.2349 42.2968C32.17 42.7311 33.1871 42.8815 34.1222 43.3158C34.5487 43.5163 34.926 43.7836 34.844 44.3349C34.7784 44.8695 34.3846 45.0866 33.9253 45.2036C32.8918 45.4709 31.8419 44.8528 31.4974 43.7168C31.3826 43.3325 31.2349 43.2824 30.9068 43.3993C30.3654 43.5831 29.8241 43.7502 29.2663 43.9005C28.9218 43.9841 28.8562 44.1678 28.9382 44.4852C29.1187 45.2871 29.496 45.9553 30.103 46.4899C31.645 47.8765 33.9417 48.1605 35.8283 47.1916C37.6 46.2727 38.2562 44.3349 37.4688 42.4805C36.9438 41.2443 35.8611 40.7765 34.7127 40.3923C34.073 40.1918 33.4004 40.0582 32.7606 39.8744C32.3832 39.7575 32.0716 39.5236 32.1208 39.0725C32.17 38.6048 32.5309 38.4377 32.941 38.3709C33.8597 38.2205 34.6143 38.5881 34.9752 39.4902C35.1557 39.9412 35.3525 39.9245 35.697 39.7575C36.2056 39.5069 36.7305 39.2563 37.2719 39.0892C37.7641 38.9222 37.7805 38.6716 37.5836 38.2707C37.3375 37.7862 37.0258 37.3518 36.6157 37.001C35.6478 36.1824 34.5159 35.865 33.3019 35.865ZM9.23595 47.6092C10.1546 47.6092 10.9585 47.5925 11.7459 47.6259C12.1396 47.6426 12.3693 47.5257 12.5661 47.1582C13.1239 46.1391 13.7473 45.1368 14.3871 44.0342C15.0433 45.1535 15.6339 46.1725 16.2408 47.2083C16.3557 47.392 16.4213 47.6259 16.7166 47.6259C17.6024 47.6092 18.5047 47.6259 19.3906 47.6259C19.407 47.3085 19.2265 47.1415 19.1281 46.9577C18.1602 45.2871 17.2087 43.6165 16.2244 41.9794C15.962 41.5617 15.9948 41.261 16.2408 40.8601C17.1103 39.4234 17.9469 37.97 18.7836 36.5166C18.8656 36.3662 19.0461 36.2493 18.9476 36.0154C18.1766 36.0154 17.3892 36.0488 16.6182 35.9987C16.1752 35.982 15.9127 36.0989 15.6995 36.5166C15.3058 37.285 14.8464 38.0034 14.3707 38.8053C13.8621 37.9366 13.3864 37.1514 12.9271 36.3662C12.8286 36.1991 12.7466 35.9987 12.4841 36.0154C11.5819 36.0321 10.6632 36.0154 9.66248 36.0154C9.81012 36.2827 9.90855 36.4497 10.007 36.6335C10.8764 38.0869 11.7295 39.557 12.599 41.0104C12.763 41.2944 12.7794 41.5116 12.599 41.7956C12.074 42.6476 11.5819 43.4996 11.0897 44.3683C10.5319 45.404 9.90855 46.4565 9.23595 47.6092ZM20.6209 41.7789C20.6209 43.5497 20.6373 45.3205 20.6209 47.0913C20.6209 47.4923 20.7194 47.6259 21.1295 47.6259C23.4262 47.6092 25.7065 47.6092 28.0031 47.6259C28.3641 47.6259 28.5281 47.5424 28.4953 47.1415C28.4625 46.6236 28.4625 46.1057 28.4953 45.5878C28.5117 45.1869 28.3641 45.0866 28.0031 45.1033C26.7236 45.12 25.4276 45.0866 24.148 45.12C23.623 45.1368 23.5082 44.953 23.5082 44.4518C23.5246 41.829 23.5082 39.2062 23.5246 36.5834C23.5246 36.1156 23.4098 35.9653 22.9504 35.9987C22.3763 36.0488 21.8021 36.0321 21.2279 35.9987C20.7686 35.9653 20.6045 36.0989 20.6045 36.6001C20.6538 38.3208 20.6209 40.0415 20.6209 41.7789Z" fill="#417241"/>
<path d="M29.2663 0.999982C30.956 2.82092 32.6621 4.65856 34.3682 6.47949C38.3874 10.7729 42.423 15.0496 46.4586 19.3263C46.5899 19.4599 46.7047 19.6103 46.8195 19.7439C41.2255 19.7439 35.615 19.7439 30.0209 19.7439C29.1515 19.7439 29.1515 19.7439 29.1515 18.8418C29.1515 12.8945 29.1515 6.94725 29.1351 0.983276C29.1843 0.999982 29.2171 0.999982 29.2663 0.999982Z" fill="#6B9B77"/>
<path d="M33.3019 35.8651C34.5159 35.8651 35.6478 36.1825 36.5993 36.9843C37.0258 37.3352 37.3211 37.7695 37.5672 38.254C37.7805 38.6549 37.7476 38.9055 37.2555 39.0726C36.7141 39.2563 36.1892 39.5069 35.6806 39.7408C35.3361 39.9079 35.1393 39.9246 34.9588 39.4735C34.5815 38.5881 33.8269 38.2039 32.9246 38.3542C32.5145 38.421 32.1536 38.5881 32.1044 39.0559C32.0551 39.5069 32.3668 39.7408 32.7442 39.8577C33.3839 40.0582 34.0565 40.1752 34.6963 40.3756C35.8447 40.7432 36.911 41.2109 37.4524 42.4639C38.2562 44.3182 37.6 46.2728 35.8119 47.1749C33.9253 48.1438 31.6286 47.8598 30.0866 46.4733C29.4796 45.9387 29.1023 45.2537 28.9218 44.4686C28.8398 44.1511 28.9054 43.9674 29.2499 43.8839C29.8077 43.7335 30.349 43.5664 30.8904 43.3827C31.2185 43.2657 31.3661 43.3159 31.481 43.7001C31.8255 44.8194 32.8754 45.4375 33.9089 45.1869C34.3682 45.07 34.762 44.8528 34.8276 44.3182C34.8932 43.7669 34.5323 43.4829 34.1058 43.2991C33.1707 42.8815 32.1536 42.7144 31.2185 42.2801C29.7257 41.5784 29.0202 40.3589 29.2335 38.7217C29.3155 38.1203 29.5616 37.6192 29.9717 37.1848C30.8084 36.2994 31.9239 35.8651 33.3019 35.8651Z" fill="#FCFDFC"/>
<path d="M9.23595 47.6093C9.90855 46.4565 10.5155 45.4041 11.1225 44.3516C11.6147 43.4996 12.1068 42.6309 12.6318 41.7789C12.8122 41.4949 12.7958 41.2777 12.6318 40.9937C11.7623 39.5403 10.8928 38.0702 10.0398 36.6168C9.94136 36.4498 9.84293 36.266 9.69529 35.9987C10.696 35.9987 11.5983 36.0154 12.5169 35.9987C12.7794 35.9987 12.8614 36.1825 12.9599 36.3495C13.4192 37.1347 13.8785 37.9199 14.4035 38.7886C14.8628 37.9867 15.3386 37.2683 15.7323 36.4999C15.9456 36.0822 16.208 35.9653 16.651 35.982C17.422 36.0154 18.2094 35.9987 18.9805 35.9987C19.0789 36.2326 18.8984 36.3662 18.8164 36.4999C17.9798 37.9533 17.1431 39.4067 16.2736 40.8434C16.0276 41.2443 16.0112 41.545 16.2572 41.9627C17.2579 43.5999 18.2094 45.2871 19.1609 46.941C19.2757 47.1248 19.4398 47.2918 19.4234 47.6093C18.5211 47.6093 17.6353 47.6093 16.7494 47.6093C16.4541 47.6093 16.3885 47.3754 16.2736 47.1916C15.6667 46.1725 15.0597 45.1368 14.4199 44.0175C13.7801 45.1201 13.1731 46.1224 12.599 47.1415C12.4021 47.4923 12.1724 47.626 11.7787 47.6093C10.9585 47.5925 10.171 47.6093 9.23595 47.6093Z" fill="#FCFCFC"/>
<path d="M20.6209 41.7789C20.6209 40.0582 20.6373 38.3208 20.6045 36.6001C20.5881 36.0822 20.7522 35.9653 21.2279 35.9987C21.8021 36.0321 22.3763 36.0321 22.9504 35.9987C23.4098 35.9653 23.5246 36.0989 23.5246 36.5834C23.5082 39.2062 23.5246 41.829 23.5082 44.4518C23.5082 44.953 23.623 45.1368 24.148 45.12C25.4276 45.0866 26.7236 45.12 28.0031 45.1033C28.3641 45.1033 28.5281 45.2036 28.4953 45.5878C28.4625 46.1057 28.4625 46.6236 28.4953 47.1415C28.5117 47.5424 28.3641 47.6259 28.0031 47.6259C25.7065 47.6092 23.4262 47.6092 21.1295 47.6259C20.7194 47.6259 20.6209 47.4923 20.6209 47.0913C20.6373 45.3205 20.6209 43.5497 20.6209 41.7789Z" fill="#FCFDFD"/>
</svg>
